G04 #@! TF.GenerationSoftware,KiCad,Pcbnew,8.0.3*
G04 #@! TF.CreationDate,2024-07-30T18:49:54+02:00*
G04 #@! TF.ProjectId,CODEC Dev Board,434f4445-4320-4446-9576-20426f617264,rev?*
G04 #@! TF.SameCoordinates,Original*
G04 #@! TF.FileFunction,Paste,Top*
G04 #@! TF.FilePolarity,Positive*
%FSLAX46Y46*%
G04 Gerber Fmt 4.6, Leading zero omitted, Abs format (unit mm)*
G04 Created by KiCad (PCBNEW 8.0.3) date 2024-07-30 18:49:54*
%MOMM*%
%LPD*%
G01*
G04 APERTURE LIST*
G04 Aperture macros list*
%AMRoundRect*
0 Rectangle with rounded corners*
0 $1 Rounding radius*
0 $2 $3 $4 $5 $6 $7 $8 $9 X,Y pos of 4 corners*
0 Add a 4 corners polygon primitive as box body*
4,1,4,$2,$3,$4,$5,$6,$7,$8,$9,$2,$3,0*
0 Add four circle primitives for the rounded corners*
1,1,$1+$1,$2,$3*
1,1,$1+$1,$4,$5*
1,1,$1+$1,$6,$7*
1,1,$1+$1,$8,$9*
0 Add four rect primitives between the rounded corners*
20,1,$1+$1,$2,$3,$4,$5,0*
20,1,$1+$1,$4,$5,$6,$7,0*
20,1,$1+$1,$6,$7,$8,$9,0*
20,1,$1+$1,$8,$9,$2,$3,0*%
G04 Aperture macros list end*
%ADD10RoundRect,0.250000X-0.350000X-0.450000X0.350000X-0.450000X0.350000X0.450000X-0.350000X0.450000X0*%
%ADD11RoundRect,0.250000X0.337500X0.475000X-0.337500X0.475000X-0.337500X-0.475000X0.337500X-0.475000X0*%
%ADD12RoundRect,0.250000X0.350000X0.450000X-0.350000X0.450000X-0.350000X-0.450000X0.350000X-0.450000X0*%
%ADD13RoundRect,0.250000X-0.450000X0.350000X-0.450000X-0.350000X0.450000X-0.350000X0.450000X0.350000X0*%
%ADD14RoundRect,0.250000X-0.475000X0.337500X-0.475000X-0.337500X0.475000X-0.337500X0.475000X0.337500X0*%
%ADD15RoundRect,0.250000X0.475000X-0.337500X0.475000X0.337500X-0.475000X0.337500X-0.475000X-0.337500X0*%
%ADD16RoundRect,0.250000X0.450000X-0.350000X0.450000X0.350000X-0.450000X0.350000X-0.450000X-0.350000X0*%
%ADD17RoundRect,0.250000X-0.337500X-0.475000X0.337500X-0.475000X0.337500X0.475000X-0.337500X0.475000X0*%
%ADD18RoundRect,0.150000X-0.150000X0.587500X-0.150000X-0.587500X0.150000X-0.587500X0.150000X0.587500X0*%
%ADD19RoundRect,0.100000X0.100000X-0.637500X0.100000X0.637500X-0.100000X0.637500X-0.100000X-0.637500X0*%
%ADD20R,0.650000X1.525000*%
%ADD21RoundRect,0.150000X0.150000X-0.587500X0.150000X0.587500X-0.150000X0.587500X-0.150000X-0.587500X0*%
%ADD22R,1.525000X0.650000*%
G04 APERTURE END LIST*
D10*
X121285000Y-106807000D03*
X123285000Y-106807000D03*
D11*
X120163500Y-100457000D03*
X118088500Y-100457000D03*
D12*
X147050000Y-87757000D03*
X145050000Y-87757000D03*
D13*
X164465000Y-115525000D03*
X164465000Y-117525000D03*
D12*
X103505000Y-106807000D03*
X101505000Y-106807000D03*
D14*
X123190000Y-129878000D03*
X123190000Y-131953000D03*
D15*
X139237000Y-119517000D03*
X139237000Y-117442000D03*
D14*
X128270000Y-129878000D03*
X128270000Y-131953000D03*
D10*
X114125000Y-82954677D03*
X116125000Y-82954677D03*
D16*
X148590000Y-123095000D03*
X148590000Y-125095000D03*
D17*
X115802500Y-103632000D03*
X117877500Y-103632000D03*
D14*
X139237000Y-121422000D03*
X139237000Y-123497000D03*
D17*
X104753500Y-100457000D03*
X106828500Y-100457000D03*
D12*
X122015000Y-103632000D03*
X120015000Y-103632000D03*
D11*
X143277500Y-101727000D03*
X141202500Y-101727000D03*
D15*
X149860000Y-111654500D03*
X149860000Y-109579500D03*
X132887000Y-117602000D03*
X132887000Y-115527000D03*
D14*
X149860000Y-105597500D03*
X149860000Y-107672500D03*
X142494000Y-118491000D03*
X142494000Y-120566000D03*
D13*
X156210000Y-125095000D03*
X156210000Y-123095000D03*
D17*
X111357500Y-111887000D03*
X113432500Y-111887000D03*
D16*
X161290000Y-123095000D03*
X161290000Y-125095000D03*
D10*
X110315000Y-82954677D03*
X112315000Y-82954677D03*
D18*
X100520000Y-85494677D03*
X98620000Y-85494677D03*
X99570000Y-87369677D03*
D14*
X120650000Y-129878000D03*
X120650000Y-131953000D03*
D11*
X123360000Y-112522000D03*
X121285000Y-112522000D03*
D12*
X103505000Y-109982000D03*
X101505000Y-109982000D03*
D11*
X161057500Y-101727000D03*
X158982500Y-101727000D03*
D16*
X158750000Y-123095000D03*
X158750000Y-125095000D03*
X122555000Y-87487000D03*
X122555000Y-85487000D03*
D10*
X94125000Y-82954677D03*
X96125000Y-82954677D03*
D12*
X143240000Y-87757000D03*
X141240000Y-87757000D03*
D10*
X117475000Y-109982000D03*
X119475000Y-109982000D03*
D13*
X106045000Y-112157000D03*
X106045000Y-114157000D03*
D19*
X128337000Y-126492000D03*
X128987000Y-126492000D03*
X129637000Y-126492000D03*
X130287000Y-126492000D03*
X130937000Y-126492000D03*
X131587000Y-126492000D03*
X132237000Y-126492000D03*
X132887000Y-126492000D03*
X133537000Y-126492000D03*
X134187000Y-126492000D03*
X134837000Y-126492000D03*
X135487000Y-126492000D03*
X136137000Y-126492000D03*
X136787000Y-126492000D03*
X136787000Y-120767000D03*
X136137000Y-120767000D03*
X135487000Y-120767000D03*
X134837000Y-120767000D03*
X134187000Y-120767000D03*
X133537000Y-120767000D03*
X132887000Y-120767000D03*
X132237000Y-120767000D03*
X131587000Y-120767000D03*
X130937000Y-120767000D03*
X130287000Y-120767000D03*
X129637000Y-120767000D03*
X128987000Y-120767000D03*
X128337000Y-120767000D03*
D17*
X137646500Y-114935000D03*
X139721500Y-114935000D03*
D16*
X103505000Y-87487000D03*
X103505000Y-85487000D03*
D14*
X115570000Y-111717000D03*
X115570000Y-113792000D03*
D16*
X106045000Y-87487000D03*
X106045000Y-85487000D03*
D13*
X163195000Y-103365000D03*
X163195000Y-105365000D03*
X118745000Y-112157000D03*
X118745000Y-114157000D03*
D10*
X117475000Y-106807000D03*
X119475000Y-106807000D03*
D16*
X147320000Y-105365000D03*
X147320000Y-103365000D03*
D10*
X97935000Y-82954677D03*
X99935000Y-82954677D03*
D14*
X130347000Y-115527000D03*
X130347000Y-117602000D03*
D16*
X151130000Y-123095000D03*
X151130000Y-125095000D03*
D12*
X143240000Y-99187000D03*
X141240000Y-99187000D03*
D20*
X165735000Y-107905000D03*
X164465000Y-107905000D03*
X163195000Y-107905000D03*
X161925000Y-107905000D03*
X161925000Y-113329000D03*
X163195000Y-113329000D03*
X164465000Y-113329000D03*
X165735000Y-113329000D03*
D16*
X163830000Y-123095000D03*
X163830000Y-125095000D03*
D12*
X164830000Y-99187000D03*
X162830000Y-99187000D03*
D15*
X135427000Y-117602000D03*
X135427000Y-115527000D03*
D16*
X162560000Y-117525000D03*
X162560000Y-115525000D03*
D21*
X111315000Y-87369677D03*
X113215000Y-87369677D03*
X112265000Y-85494677D03*
D14*
X125730000Y-129878000D03*
X125730000Y-131953000D03*
D21*
X95125000Y-87369677D03*
X97025000Y-87369677D03*
X96075000Y-85494677D03*
D16*
X165100000Y-105365000D03*
X165100000Y-103365000D03*
D22*
X115107000Y-109982000D03*
X115107000Y-108712000D03*
X115107000Y-107442000D03*
X115107000Y-106172000D03*
X109683000Y-106172000D03*
X109683000Y-107442000D03*
X109683000Y-108712000D03*
X109683000Y-109982000D03*
D15*
X167640000Y-111654500D03*
X167640000Y-109579500D03*
D10*
X102775000Y-103632000D03*
X104775000Y-103632000D03*
D15*
X142240000Y-115525000D03*
X142240000Y-113450000D03*
D13*
X145415000Y-103365000D03*
X145415000Y-105365000D03*
D11*
X101430000Y-112522000D03*
X103505000Y-112522000D03*
D12*
X161020000Y-99187000D03*
X159020000Y-99187000D03*
X107315000Y-109982000D03*
X105315000Y-109982000D03*
D10*
X121285000Y-109982000D03*
X123285000Y-109982000D03*
D13*
X120015000Y-85487000D03*
X120015000Y-87487000D03*
D12*
X147050000Y-99187000D03*
X145050000Y-99187000D03*
D14*
X108585000Y-111887000D03*
X108585000Y-113962000D03*
D16*
X144780000Y-117525000D03*
X144780000Y-115525000D03*
D18*
X116710000Y-85494677D03*
X114810000Y-85494677D03*
X115760000Y-87369677D03*
D13*
X146685000Y-115525000D03*
X146685000Y-117525000D03*
D15*
X160020000Y-115525000D03*
X160020000Y-113450000D03*
D16*
X146050000Y-123095000D03*
X146050000Y-125095000D03*
X153670000Y-123095000D03*
X153670000Y-125095000D03*
D14*
X167640000Y-105597500D03*
X167640000Y-107672500D03*
D12*
X161020000Y-87757000D03*
X159020000Y-87757000D03*
X164830000Y-87757000D03*
X162830000Y-87757000D03*
D13*
X166370000Y-125095000D03*
X166370000Y-123095000D03*
D12*
X107315000Y-106807000D03*
X105315000Y-106807000D03*
D20*
X147955000Y-107905000D03*
X146685000Y-107905000D03*
X145415000Y-107905000D03*
X144145000Y-107905000D03*
X144145000Y-113329000D03*
X145415000Y-113329000D03*
X146685000Y-113329000D03*
X147955000Y-113329000D03*
D11*
X108987500Y-103632000D03*
X106912500Y-103632000D03*
M02*
