G04 #@! TF.GenerationSoftware,KiCad,Pcbnew,8.0.3*
G04 #@! TF.CreationDate,2024-07-30T18:49:54+02:00*
G04 #@! TF.ProjectId,CODEC Dev Board,434f4445-4320-4446-9576-20426f617264,rev?*
G04 #@! TF.SameCoordinates,Original*
G04 #@! TF.FileFunction,Legend,Bot*
G04 #@! TF.FilePolarity,Positive*
%FSLAX46Y46*%
G04 Gerber Fmt 4.6, Leading zero omitted, Abs format (unit mm)*
G04 Created by KiCad (PCBNEW 8.0.3) date 2024-07-30 18:49:54*
%MOMM*%
%LPD*%
G01*
G04 APERTURE LIST*
%ADD10R,1.600000X1.600000*%
%ADD11C,1.600000*%
%ADD12R,1.700000X1.700000*%
%ADD13O,1.700000X1.700000*%
%ADD14R,2.000000X2.000000*%
%ADD15C,2.000000*%
%ADD16R,2.400000X2.400000*%
%ADD17C,2.400000*%
%ADD18C,0.800000*%
%ADD19C,0.600000*%
G04 APERTURE END LIST*
%LPC*%
D10*
X157480000Y-95067000D03*
D11*
X157480000Y-91567000D03*
D10*
X148590000Y-95124651D03*
D11*
X148590000Y-91624651D03*
D12*
X106045000Y-82677000D03*
D13*
X103505000Y-82677000D03*
D14*
X107315000Y-96474677D03*
D15*
X107315000Y-91474677D03*
D10*
X139700000Y-95067000D03*
D11*
X139700000Y-91567000D03*
D14*
X126537323Y-103632000D03*
D15*
X131537323Y-103632000D03*
D10*
X166370000Y-95124651D03*
D11*
X166370000Y-91624651D03*
D14*
X118745000Y-96474677D03*
D15*
X118745000Y-91474677D03*
D12*
X122560000Y-82677000D03*
D13*
X120020000Y-82677000D03*
D14*
X119399323Y-123639500D03*
D15*
X124399323Y-123639500D03*
D12*
X164465000Y-82677000D03*
D13*
X161925000Y-82677000D03*
X159385000Y-82677000D03*
D16*
X91597000Y-131572000D03*
D17*
X95097000Y-131572000D03*
X98597000Y-131572000D03*
D12*
X166370000Y-128270000D03*
D13*
X163830000Y-128270000D03*
X161290000Y-128270000D03*
X158750000Y-128270000D03*
X156210000Y-128270000D03*
X153670000Y-128270000D03*
X151130000Y-128270000D03*
X148590000Y-128270000D03*
X146050000Y-128270000D03*
X143510000Y-128270000D03*
D12*
X146685000Y-82677000D03*
D13*
X144145000Y-82677000D03*
X141605000Y-82677000D03*
D15*
X93252677Y-103632000D03*
D14*
X98252677Y-103632000D03*
D18*
X104756969Y-112650895D03*
X157861000Y-101727000D03*
D19*
X151257000Y-117475000D03*
X151257000Y-113030000D03*
X157480000Y-117475000D03*
X153670000Y-117475000D03*
X153670000Y-113030000D03*
X157480000Y-113030000D03*
X167640000Y-123190000D03*
X154970000Y-123190000D03*
X144145000Y-121920000D03*
X144145000Y-126365000D03*
X121920000Y-132080000D03*
X124460000Y-132080000D03*
X127000000Y-132080000D03*
X158496000Y-103505000D03*
X158242000Y-117983000D03*
X132842000Y-114427000D03*
X139446000Y-116205000D03*
X161036000Y-89281000D03*
X113432500Y-113008500D03*
X114300000Y-103251000D03*
X135382000Y-114427000D03*
X144018000Y-109601000D03*
X103124000Y-88773000D03*
X117094000Y-84201000D03*
X92710000Y-83185000D03*
X107823000Y-100330000D03*
X132842000Y-125349000D03*
X120015000Y-88392000D03*
X129032000Y-125349000D03*
X145034000Y-89281000D03*
X139954000Y-101473000D03*
X151384000Y-109601000D03*
X161515343Y-106567328D03*
X132842000Y-122047000D03*
X169164000Y-109601000D03*
X130302000Y-114427000D03*
X117094000Y-100584000D03*
X122372500Y-112522000D03*
X162814000Y-89281000D03*
X143256000Y-89281000D03*
X110490000Y-103251000D03*
X109347000Y-82931000D03*
X137922000Y-123317000D03*
X113538000Y-106553000D03*
X100838000Y-84201000D03*
X162179000Y-102362000D03*
X162422000Y-106415000D03*
X152908000Y-119091000D03*
X152908000Y-102997000D03*
X161290000Y-112903000D03*
X159766000Y-100457000D03*
X137668000Y-116205000D03*
X137160000Y-119041000D03*
X137668000Y-113665000D03*
X137668000Y-104775000D03*
X144526000Y-102235000D03*
X144272000Y-106553000D03*
X142494000Y-102997000D03*
X143381491Y-114427000D03*
X128270000Y-118237000D03*
X111252000Y-89027000D03*
X113030000Y-92837000D03*
X127762000Y-93345000D03*
X96520000Y-120523000D03*
X96012000Y-87503000D03*
X125984000Y-118745000D03*
X125814000Y-110617000D03*
X124714000Y-107061000D03*
X126111000Y-119729500D03*
X100584000Y-121539000D03*
X100584000Y-111125000D03*
X103632000Y-122504500D03*
X100076000Y-107315000D03*
X146304000Y-101219000D03*
X147828000Y-101219000D03*
%LPD*%
M02*
