%TF.GenerationSoftware,KiCad,Pcbnew,8.0.3*%
%TF.CreationDate,2024-07-30T18:50:14+02:00*%
%TF.ProjectId,CODEC Dev Board,434f4445-4320-4446-9576-20426f617264,rev?*%
%TF.SameCoordinates,Original*%
%TF.FileFunction,Drillmap*%
%TF.FilePolarity,Positive*%
%FSLAX45Y45*%
G04 Gerber Fmt 4.5, Leading zero omitted, Abs format (unit mm)*
G04 Created by KiCad (PCBNEW 8.0.3) date 2024-07-30 18:50:14*
%MOMM*%
%LPD*%
G01*
G04 APERTURE LIST*
%ADD10C,0.100000*%
%ADD11C,0.200000*%
%ADD12C,0.120000*%
G04 APERTURE END LIST*
D10*
X8890000Y-7762900D02*
X17195800Y-7762900D01*
X17195800Y-13525500D01*
X8890000Y-13525500D01*
X8890000Y-7762900D01*
D11*
D10*
X9256000Y-8303500D02*
X9286000Y-8333500D01*
X9286000Y-8303500D02*
X9256000Y-8333500D01*
X9586200Y-8735300D02*
X9616200Y-8765300D01*
X9616200Y-8735300D02*
X9586200Y-8765300D01*
X9637000Y-12037300D02*
X9667000Y-12067300D01*
X9667000Y-12037300D02*
X9637000Y-12067300D01*
X9992600Y-10716500D02*
X10022600Y-10746500D01*
X10022600Y-10716500D02*
X9992600Y-10746500D01*
X10043400Y-11097500D02*
X10073400Y-11127500D01*
X10073400Y-11097500D02*
X10043400Y-11127500D01*
X10043400Y-12138900D02*
X10073400Y-12168900D01*
X10073400Y-12138900D02*
X10043400Y-12168900D01*
X10068800Y-8405100D02*
X10098800Y-8435100D01*
X10098800Y-8405100D02*
X10068800Y-8435100D01*
X10297400Y-8862300D02*
X10327400Y-8892300D01*
X10327400Y-8862300D02*
X10297400Y-8892300D01*
X10348200Y-12235450D02*
X10378200Y-12265450D01*
X10378200Y-12235450D02*
X10348200Y-12265450D01*
X10767300Y-10018000D02*
X10797300Y-10048000D01*
X10797300Y-10018000D02*
X10767300Y-10048000D01*
X10919700Y-8278100D02*
X10949700Y-8308100D01*
X10949700Y-8278100D02*
X10919700Y-8308100D01*
X11034000Y-10310100D02*
X11064000Y-10340100D01*
X11064000Y-10310100D02*
X11034000Y-10340100D01*
X11110200Y-8887700D02*
X11140200Y-8917700D01*
X11140200Y-8887700D02*
X11110200Y-8917700D01*
X11288000Y-9268700D02*
X11318000Y-9298700D01*
X11318000Y-9268700D02*
X11288000Y-9298700D01*
X11328250Y-11285850D02*
X11358250Y-11315850D01*
X11358250Y-11285850D02*
X11328250Y-11315850D01*
X11338800Y-10640300D02*
X11368800Y-10670300D01*
X11368800Y-10640300D02*
X11338800Y-10670300D01*
X11415000Y-10310100D02*
X11445000Y-10340100D01*
X11445000Y-10310100D02*
X11415000Y-10340100D01*
X11694400Y-8405100D02*
X11724400Y-8435100D01*
X11724400Y-8405100D02*
X11694400Y-8435100D01*
X11694400Y-10043400D02*
X11724400Y-10073400D01*
X11724400Y-10043400D02*
X11694400Y-10073400D01*
X11986500Y-8824200D02*
X12016500Y-8854200D01*
X12016500Y-8824200D02*
X11986500Y-8854200D01*
X12177000Y-13193000D02*
X12207000Y-13223000D01*
X12207000Y-13193000D02*
X12177000Y-13223000D01*
X12222250Y-11237200D02*
X12252250Y-11267200D01*
X12252250Y-11237200D02*
X12222250Y-11267200D01*
X12431000Y-13193000D02*
X12461000Y-13223000D01*
X12461000Y-13193000D02*
X12431000Y-13223000D01*
X12456400Y-10691100D02*
X12486400Y-10721100D01*
X12486400Y-10691100D02*
X12456400Y-10721100D01*
X12566400Y-11046700D02*
X12596400Y-11076700D01*
X12596400Y-11046700D02*
X12566400Y-11076700D01*
X12583400Y-11859500D02*
X12613400Y-11889500D01*
X12613400Y-11859500D02*
X12583400Y-11889500D01*
X12596100Y-11957950D02*
X12626100Y-11987950D01*
X12626100Y-11957950D02*
X12596100Y-11987950D01*
X12685000Y-13193000D02*
X12715000Y-13223000D01*
X12715000Y-13193000D02*
X12685000Y-13223000D01*
X12761200Y-9319500D02*
X12791200Y-9349500D01*
X12791200Y-9319500D02*
X12761200Y-9349500D01*
X12812000Y-11808700D02*
X12842000Y-11838700D01*
X12842000Y-11808700D02*
X12812000Y-11838700D01*
X12888200Y-12519900D02*
X12918200Y-12549900D01*
X12918200Y-12519900D02*
X12888200Y-12549900D01*
X13015200Y-11427700D02*
X13045200Y-11457700D01*
X13045200Y-11427700D02*
X13015200Y-11457700D01*
X13269200Y-11427700D02*
X13299200Y-11457700D01*
X13299200Y-11427700D02*
X13269200Y-11457700D01*
X13269200Y-12189700D02*
X13299200Y-12219700D01*
X13299200Y-12189700D02*
X13269200Y-12219700D01*
X13269200Y-12519900D02*
X13299200Y-12549900D01*
X13299200Y-12519900D02*
X13269200Y-12549900D01*
X13523200Y-11427700D02*
X13553200Y-11457700D01*
X13553200Y-11427700D02*
X13523200Y-11457700D01*
X13701000Y-11889100D02*
X13731000Y-11919100D01*
X13731000Y-11889100D02*
X13701000Y-11919100D01*
X13751800Y-10462500D02*
X13781800Y-10492500D01*
X13781800Y-10462500D02*
X13751800Y-10492500D01*
X13751800Y-11351500D02*
X13781800Y-11381500D01*
X13781800Y-11351500D02*
X13751800Y-11381500D01*
X13751800Y-11605500D02*
X13781800Y-11635500D01*
X13781800Y-11605500D02*
X13751800Y-11635500D01*
X13777200Y-12316700D02*
X13807200Y-12346700D01*
X13807200Y-12316700D02*
X13777200Y-12346700D01*
X13929600Y-11605500D02*
X13959600Y-11635500D01*
X13959600Y-11605500D02*
X13929600Y-11635500D01*
X13980400Y-10132300D02*
X14010400Y-10162300D01*
X14010400Y-10132300D02*
X13980400Y-10162300D01*
X14234400Y-10284700D02*
X14264400Y-10314700D01*
X14264400Y-10284700D02*
X14234400Y-10314700D01*
X14310600Y-8913100D02*
X14340600Y-8943100D01*
X14340600Y-8913100D02*
X14310600Y-8943100D01*
X14323149Y-11427700D02*
X14353149Y-11457700D01*
X14353149Y-11427700D02*
X14323149Y-11457700D01*
X14386800Y-10945100D02*
X14416800Y-10975100D01*
X14416800Y-10945100D02*
X14386800Y-10975100D01*
X14399500Y-12177000D02*
X14429500Y-12207000D01*
X14429500Y-12177000D02*
X14399500Y-12207000D01*
X14399500Y-12621500D02*
X14429500Y-12651500D01*
X14429500Y-12621500D02*
X14399500Y-12651500D01*
X14412200Y-10640300D02*
X14442200Y-10670300D01*
X14442200Y-10640300D02*
X14412200Y-10670300D01*
X14437600Y-10208500D02*
X14467600Y-10238500D01*
X14467600Y-10208500D02*
X14437600Y-10238500D01*
X14488400Y-8913100D02*
X14518400Y-8943100D01*
X14518400Y-8913100D02*
X14488400Y-8943100D01*
X14615400Y-10106900D02*
X14645400Y-10136900D01*
X14645400Y-10106900D02*
X14615400Y-10136900D01*
X14767800Y-10106900D02*
X14797800Y-10136900D01*
X14797800Y-10106900D02*
X14767800Y-10136900D01*
X15110700Y-11288000D02*
X15140700Y-11318000D01*
X15140700Y-11288000D02*
X15110700Y-11318000D01*
X15110700Y-11732500D02*
X15140700Y-11762500D01*
X15140700Y-11732500D02*
X15110700Y-11762500D01*
X15123400Y-10945100D02*
X15153400Y-10975100D01*
X15153400Y-10945100D02*
X15123400Y-10975100D01*
X15275800Y-10284700D02*
X15305800Y-10314700D01*
X15305800Y-10284700D02*
X15275800Y-10314700D01*
X15275800Y-11894100D02*
X15305800Y-11924100D01*
X15305800Y-11894100D02*
X15275800Y-11924100D01*
X15352000Y-11288000D02*
X15382000Y-11318000D01*
X15382000Y-11288000D02*
X15352000Y-11318000D01*
X15352000Y-11732500D02*
X15382000Y-11762500D01*
X15382000Y-11732500D02*
X15352000Y-11762500D01*
X15482000Y-12304000D02*
X15512000Y-12334000D01*
X15512000Y-12304000D02*
X15482000Y-12334000D01*
X15733000Y-11288000D02*
X15763000Y-11318000D01*
X15763000Y-11288000D02*
X15733000Y-11318000D01*
X15733000Y-11732500D02*
X15763000Y-11762500D01*
X15763000Y-11732500D02*
X15733000Y-11762500D01*
X15809200Y-11783300D02*
X15839200Y-11813300D01*
X15839200Y-11783300D02*
X15809200Y-11813300D01*
X15834600Y-10335500D02*
X15864600Y-10365500D01*
X15864600Y-10335500D02*
X15834600Y-10365500D01*
X15961600Y-10030700D02*
X15991600Y-10060700D01*
X15991600Y-10030700D02*
X15961600Y-10060700D01*
X16088600Y-8913100D02*
X16118600Y-8943100D01*
X16118600Y-8913100D02*
X16088600Y-8943100D01*
X16114000Y-11275300D02*
X16144000Y-11305300D01*
X16144000Y-11275300D02*
X16114000Y-11305300D01*
X16136534Y-10641733D02*
X16166534Y-10671733D01*
X16166534Y-10641733D02*
X16136534Y-10671733D01*
X16202900Y-10221200D02*
X16232900Y-10251200D01*
X16232900Y-10221200D02*
X16202900Y-10251200D01*
X16227200Y-10626500D02*
X16257200Y-10656500D01*
X16257200Y-10626500D02*
X16227200Y-10656500D01*
X16266400Y-8913100D02*
X16296400Y-8943100D01*
X16296400Y-8913100D02*
X16266400Y-8943100D01*
X16749000Y-12304000D02*
X16779000Y-12334000D01*
X16779000Y-12304000D02*
X16749000Y-12334000D01*
X16901400Y-10945100D02*
X16931400Y-10975100D01*
X16931400Y-10945100D02*
X16901400Y-10975100D01*
X10495697Y-11265089D02*
G75*
G02*
X10455697Y-11265089I-20000J0D01*
G01*
X10455697Y-11265089D02*
G75*
G02*
X10495697Y-11265089I20000J0D01*
G01*
X15806100Y-10172700D02*
G75*
G02*
X15766100Y-10172700I-20000J0D01*
G01*
X15766100Y-10172700D02*
G75*
G02*
X15806100Y-10172700I20000J0D01*
G01*
X13970000Y-9116700D02*
X13970000Y-9196700D01*
X13930000Y-9156700D02*
X14010000Y-9156700D01*
X13970000Y-9466700D02*
X13970000Y-9546700D01*
X13930000Y-9506700D02*
X14010000Y-9506700D01*
X14859000Y-9122465D02*
X14859000Y-9202465D01*
X14819000Y-9162465D02*
X14899000Y-9162465D01*
X14859000Y-9472465D02*
X14859000Y-9552465D01*
X14819000Y-9512465D02*
X14899000Y-9512465D01*
X15748000Y-9116700D02*
X15748000Y-9196700D01*
X15708000Y-9156700D02*
X15788000Y-9156700D01*
X15748000Y-9466700D02*
X15748000Y-9546700D01*
X15708000Y-9506700D02*
X15788000Y-9506700D01*
X16637000Y-9122465D02*
X16637000Y-9202465D01*
X16597000Y-9162465D02*
X16677000Y-9162465D01*
X16637000Y-9472465D02*
X16637000Y-9552465D01*
X16597000Y-9512465D02*
X16677000Y-9512465D01*
X9360623Y-10398556D02*
X9360623Y-10327844D01*
X9289912Y-10327844D01*
X9289912Y-10398556D01*
X9360623Y-10398556D01*
X9860623Y-10398556D02*
X9860623Y-10327844D01*
X9789912Y-10327844D01*
X9789912Y-10398556D01*
X9860623Y-10398556D01*
X10385856Y-8303056D02*
X10385856Y-8232344D01*
X10315144Y-8232344D01*
X10315144Y-8303056D01*
X10385856Y-8303056D01*
X10639856Y-8303056D02*
X10639856Y-8232344D01*
X10569144Y-8232344D01*
X10569144Y-8303056D01*
X10639856Y-8303056D01*
X10766856Y-9182823D02*
X10766856Y-9112112D01*
X10696144Y-9112112D01*
X10696144Y-9182823D01*
X10766856Y-9182823D01*
X10766856Y-9682823D02*
X10766856Y-9612112D01*
X10696144Y-9612112D01*
X10696144Y-9682823D01*
X10766856Y-9682823D01*
X11909856Y-9182823D02*
X11909856Y-9112112D01*
X11839144Y-9112112D01*
X11839144Y-9182823D01*
X11909856Y-9182823D01*
X11909856Y-9682823D02*
X11909856Y-9612112D01*
X11839144Y-9612112D01*
X11839144Y-9682823D01*
X11909856Y-9682823D01*
X11975288Y-12399306D02*
X11975288Y-12328594D01*
X11904577Y-12328594D01*
X11904577Y-12399306D01*
X11975288Y-12399306D01*
X12037356Y-8303056D02*
X12037356Y-8232344D01*
X11966644Y-8232344D01*
X11966644Y-8303056D01*
X12037356Y-8303056D01*
X12291356Y-8303056D02*
X12291356Y-8232344D01*
X12220644Y-8232344D01*
X12220644Y-8303056D01*
X12291356Y-8303056D01*
X12475288Y-12399306D02*
X12475288Y-12328594D01*
X12404577Y-12328594D01*
X12404577Y-12399306D01*
X12475288Y-12399306D01*
X12689088Y-10398556D02*
X12689088Y-10327844D01*
X12618377Y-10327844D01*
X12618377Y-10398556D01*
X12689088Y-10398556D01*
X13189088Y-10398556D02*
X13189088Y-10327844D01*
X13118377Y-10327844D01*
X13118377Y-10398556D01*
X13189088Y-10398556D01*
X14195856Y-8303056D02*
X14195856Y-8232344D01*
X14125144Y-8232344D01*
X14125144Y-8303056D01*
X14195856Y-8303056D01*
X14386356Y-12862356D02*
X14386356Y-12791644D01*
X14315644Y-12791644D01*
X14315644Y-12862356D01*
X14386356Y-12862356D01*
X14449856Y-8303056D02*
X14449856Y-8232344D01*
X14379144Y-8232344D01*
X14379144Y-8303056D01*
X14449856Y-8303056D01*
X14640356Y-12862356D02*
X14640356Y-12791644D01*
X14569644Y-12791644D01*
X14569644Y-12862356D01*
X14640356Y-12862356D01*
X14703856Y-8303056D02*
X14703856Y-8232344D01*
X14633144Y-8232344D01*
X14633144Y-8303056D01*
X14703856Y-8303056D01*
X14894356Y-12862356D02*
X14894356Y-12791644D01*
X14823644Y-12791644D01*
X14823644Y-12862356D01*
X14894356Y-12862356D01*
X15148356Y-12862356D02*
X15148356Y-12791644D01*
X15077644Y-12791644D01*
X15077644Y-12862356D01*
X15148356Y-12862356D01*
X15402356Y-12862356D02*
X15402356Y-12791644D01*
X15331644Y-12791644D01*
X15331644Y-12862356D01*
X15402356Y-12862356D01*
X15656356Y-12862356D02*
X15656356Y-12791644D01*
X15585644Y-12791644D01*
X15585644Y-12862356D01*
X15656356Y-12862356D01*
X15910356Y-12862356D02*
X15910356Y-12791644D01*
X15839644Y-12791644D01*
X15839644Y-12862356D01*
X15910356Y-12862356D01*
X15973856Y-8303056D02*
X15973856Y-8232344D01*
X15903144Y-8232344D01*
X15903144Y-8303056D01*
X15973856Y-8303056D01*
X16164356Y-12862356D02*
X16164356Y-12791644D01*
X16093644Y-12791644D01*
X16093644Y-12862356D01*
X16164356Y-12862356D01*
X16227856Y-8303056D02*
X16227856Y-8232344D01*
X16157144Y-8232344D01*
X16157144Y-8303056D01*
X16227856Y-8303056D01*
X16418356Y-12862356D02*
X16418356Y-12791644D01*
X16347644Y-12791644D01*
X16347644Y-12862356D01*
X16418356Y-12862356D01*
X16481856Y-8303056D02*
X16481856Y-8232344D01*
X16411144Y-8232344D01*
X16411144Y-8303056D01*
X16481856Y-8303056D01*
X16672356Y-12862356D02*
X16672356Y-12791644D01*
X16601644Y-12791644D01*
X16601644Y-12862356D01*
X16672356Y-12862356D01*
D12*
X9159700Y-13217200D02*
X9219700Y-13157200D01*
X9159700Y-13097200D01*
X9099700Y-13157200D01*
X9159700Y-13217200D01*
X9509700Y-13217200D02*
X9569700Y-13157200D01*
X9509700Y-13097200D01*
X9449700Y-13157200D01*
X9509700Y-13217200D01*
X9859700Y-13217200D02*
X9919700Y-13157200D01*
X9859700Y-13097200D01*
X9799700Y-13157200D01*
X9859700Y-13217200D01*
D11*
X9145777Y-13841984D02*
X9145777Y-13641984D01*
X9145777Y-13641984D02*
X9193396Y-13641984D01*
X9193396Y-13641984D02*
X9221967Y-13651508D01*
X9221967Y-13651508D02*
X9241015Y-13670555D01*
X9241015Y-13670555D02*
X9250539Y-13689603D01*
X9250539Y-13689603D02*
X9260063Y-13727698D01*
X9260063Y-13727698D02*
X9260063Y-13756269D01*
X9260063Y-13756269D02*
X9250539Y-13794365D01*
X9250539Y-13794365D02*
X9241015Y-13813412D01*
X9241015Y-13813412D02*
X9221967Y-13832460D01*
X9221967Y-13832460D02*
X9193396Y-13841984D01*
X9193396Y-13841984D02*
X9145777Y-13841984D01*
X9345777Y-13841984D02*
X9345777Y-13708650D01*
X9345777Y-13746746D02*
X9355301Y-13727698D01*
X9355301Y-13727698D02*
X9364824Y-13718174D01*
X9364824Y-13718174D02*
X9383872Y-13708650D01*
X9383872Y-13708650D02*
X9402920Y-13708650D01*
X9469586Y-13841984D02*
X9469586Y-13708650D01*
X9469586Y-13641984D02*
X9460063Y-13651508D01*
X9460063Y-13651508D02*
X9469586Y-13661031D01*
X9469586Y-13661031D02*
X9479110Y-13651508D01*
X9479110Y-13651508D02*
X9469586Y-13641984D01*
X9469586Y-13641984D02*
X9469586Y-13661031D01*
X9593396Y-13841984D02*
X9574348Y-13832460D01*
X9574348Y-13832460D02*
X9564824Y-13813412D01*
X9564824Y-13813412D02*
X9564824Y-13641984D01*
X9698158Y-13841984D02*
X9679110Y-13832460D01*
X9679110Y-13832460D02*
X9669586Y-13813412D01*
X9669586Y-13813412D02*
X9669586Y-13641984D01*
X9926729Y-13841984D02*
X9926729Y-13641984D01*
X9926729Y-13641984D02*
X9993396Y-13784841D01*
X9993396Y-13784841D02*
X10060063Y-13641984D01*
X10060063Y-13641984D02*
X10060063Y-13841984D01*
X10241015Y-13841984D02*
X10241015Y-13737222D01*
X10241015Y-13737222D02*
X10231491Y-13718174D01*
X10231491Y-13718174D02*
X10212444Y-13708650D01*
X10212444Y-13708650D02*
X10174348Y-13708650D01*
X10174348Y-13708650D02*
X10155301Y-13718174D01*
X10241015Y-13832460D02*
X10221967Y-13841984D01*
X10221967Y-13841984D02*
X10174348Y-13841984D01*
X10174348Y-13841984D02*
X10155301Y-13832460D01*
X10155301Y-13832460D02*
X10145777Y-13813412D01*
X10145777Y-13813412D02*
X10145777Y-13794365D01*
X10145777Y-13794365D02*
X10155301Y-13775317D01*
X10155301Y-13775317D02*
X10174348Y-13765793D01*
X10174348Y-13765793D02*
X10221967Y-13765793D01*
X10221967Y-13765793D02*
X10241015Y-13756269D01*
X10336253Y-13708650D02*
X10336253Y-13908650D01*
X10336253Y-13718174D02*
X10355301Y-13708650D01*
X10355301Y-13708650D02*
X10393396Y-13708650D01*
X10393396Y-13708650D02*
X10412444Y-13718174D01*
X10412444Y-13718174D02*
X10421967Y-13727698D01*
X10421967Y-13727698D02*
X10431491Y-13746746D01*
X10431491Y-13746746D02*
X10431491Y-13803888D01*
X10431491Y-13803888D02*
X10421967Y-13822936D01*
X10421967Y-13822936D02*
X10412444Y-13832460D01*
X10412444Y-13832460D02*
X10393396Y-13841984D01*
X10393396Y-13841984D02*
X10355301Y-13841984D01*
X10355301Y-13841984D02*
X10336253Y-13832460D01*
X10517205Y-13822936D02*
X10526729Y-13832460D01*
X10526729Y-13832460D02*
X10517205Y-13841984D01*
X10517205Y-13841984D02*
X10507682Y-13832460D01*
X10507682Y-13832460D02*
X10517205Y-13822936D01*
X10517205Y-13822936D02*
X10517205Y-13841984D01*
X10517205Y-13718174D02*
X10526729Y-13727698D01*
X10526729Y-13727698D02*
X10517205Y-13737222D01*
X10517205Y-13737222D02*
X10507682Y-13727698D01*
X10507682Y-13727698D02*
X10517205Y-13718174D01*
X10517205Y-13718174D02*
X10517205Y-13737222D01*
D10*
X8855000Y-14155500D02*
X8885000Y-14185500D01*
X8885000Y-14155500D02*
X8855000Y-14185500D01*
D11*
X9183872Y-14061984D02*
X9202920Y-14061984D01*
X9202920Y-14061984D02*
X9221967Y-14071508D01*
X9221967Y-14071508D02*
X9231491Y-14081031D01*
X9231491Y-14081031D02*
X9241015Y-14100079D01*
X9241015Y-14100079D02*
X9250539Y-14138174D01*
X9250539Y-14138174D02*
X9250539Y-14185793D01*
X9250539Y-14185793D02*
X9241015Y-14223888D01*
X9241015Y-14223888D02*
X9231491Y-14242936D01*
X9231491Y-14242936D02*
X9221967Y-14252460D01*
X9221967Y-14252460D02*
X9202920Y-14261984D01*
X9202920Y-14261984D02*
X9183872Y-14261984D01*
X9183872Y-14261984D02*
X9164824Y-14252460D01*
X9164824Y-14252460D02*
X9155301Y-14242936D01*
X9155301Y-14242936D02*
X9145777Y-14223888D01*
X9145777Y-14223888D02*
X9136253Y-14185793D01*
X9136253Y-14185793D02*
X9136253Y-14138174D01*
X9136253Y-14138174D02*
X9145777Y-14100079D01*
X9145777Y-14100079D02*
X9155301Y-14081031D01*
X9155301Y-14081031D02*
X9164824Y-14071508D01*
X9164824Y-14071508D02*
X9183872Y-14061984D01*
X9336253Y-14242936D02*
X9345777Y-14252460D01*
X9345777Y-14252460D02*
X9336253Y-14261984D01*
X9336253Y-14261984D02*
X9326729Y-14252460D01*
X9326729Y-14252460D02*
X9336253Y-14242936D01*
X9336253Y-14242936D02*
X9336253Y-14261984D01*
X9412444Y-14061984D02*
X9536253Y-14061984D01*
X9536253Y-14061984D02*
X9469586Y-14138174D01*
X9469586Y-14138174D02*
X9498158Y-14138174D01*
X9498158Y-14138174D02*
X9517205Y-14147698D01*
X9517205Y-14147698D02*
X9526729Y-14157222D01*
X9526729Y-14157222D02*
X9536253Y-14176269D01*
X9536253Y-14176269D02*
X9536253Y-14223888D01*
X9536253Y-14223888D02*
X9526729Y-14242936D01*
X9526729Y-14242936D02*
X9517205Y-14252460D01*
X9517205Y-14252460D02*
X9498158Y-14261984D01*
X9498158Y-14261984D02*
X9441015Y-14261984D01*
X9441015Y-14261984D02*
X9421967Y-14252460D01*
X9421967Y-14252460D02*
X9412444Y-14242936D01*
X9660063Y-14061984D02*
X9679110Y-14061984D01*
X9679110Y-14061984D02*
X9698158Y-14071508D01*
X9698158Y-14071508D02*
X9707682Y-14081031D01*
X9707682Y-14081031D02*
X9717205Y-14100079D01*
X9717205Y-14100079D02*
X9726729Y-14138174D01*
X9726729Y-14138174D02*
X9726729Y-14185793D01*
X9726729Y-14185793D02*
X9717205Y-14223888D01*
X9717205Y-14223888D02*
X9707682Y-14242936D01*
X9707682Y-14242936D02*
X9698158Y-14252460D01*
X9698158Y-14252460D02*
X9679110Y-14261984D01*
X9679110Y-14261984D02*
X9660063Y-14261984D01*
X9660063Y-14261984D02*
X9641015Y-14252460D01*
X9641015Y-14252460D02*
X9631491Y-14242936D01*
X9631491Y-14242936D02*
X9621967Y-14223888D01*
X9621967Y-14223888D02*
X9612444Y-14185793D01*
X9612444Y-14185793D02*
X9612444Y-14138174D01*
X9612444Y-14138174D02*
X9621967Y-14100079D01*
X9621967Y-14100079D02*
X9631491Y-14081031D01*
X9631491Y-14081031D02*
X9641015Y-14071508D01*
X9641015Y-14071508D02*
X9660063Y-14061984D01*
X9850539Y-14061984D02*
X9869586Y-14061984D01*
X9869586Y-14061984D02*
X9888634Y-14071508D01*
X9888634Y-14071508D02*
X9898158Y-14081031D01*
X9898158Y-14081031D02*
X9907682Y-14100079D01*
X9907682Y-14100079D02*
X9917205Y-14138174D01*
X9917205Y-14138174D02*
X9917205Y-14185793D01*
X9917205Y-14185793D02*
X9907682Y-14223888D01*
X9907682Y-14223888D02*
X9898158Y-14242936D01*
X9898158Y-14242936D02*
X9888634Y-14252460D01*
X9888634Y-14252460D02*
X9869586Y-14261984D01*
X9869586Y-14261984D02*
X9850539Y-14261984D01*
X9850539Y-14261984D02*
X9831491Y-14252460D01*
X9831491Y-14252460D02*
X9821967Y-14242936D01*
X9821967Y-14242936D02*
X9812444Y-14223888D01*
X9812444Y-14223888D02*
X9802920Y-14185793D01*
X9802920Y-14185793D02*
X9802920Y-14138174D01*
X9802920Y-14138174D02*
X9812444Y-14100079D01*
X9812444Y-14100079D02*
X9821967Y-14081031D01*
X9821967Y-14081031D02*
X9831491Y-14071508D01*
X9831491Y-14071508D02*
X9850539Y-14061984D01*
X10002920Y-14261984D02*
X10002920Y-14128650D01*
X10002920Y-14147698D02*
X10012444Y-14138174D01*
X10012444Y-14138174D02*
X10031491Y-14128650D01*
X10031491Y-14128650D02*
X10060063Y-14128650D01*
X10060063Y-14128650D02*
X10079110Y-14138174D01*
X10079110Y-14138174D02*
X10088634Y-14157222D01*
X10088634Y-14157222D02*
X10088634Y-14261984D01*
X10088634Y-14157222D02*
X10098158Y-14138174D01*
X10098158Y-14138174D02*
X10117205Y-14128650D01*
X10117205Y-14128650D02*
X10145777Y-14128650D01*
X10145777Y-14128650D02*
X10164825Y-14138174D01*
X10164825Y-14138174D02*
X10174348Y-14157222D01*
X10174348Y-14157222D02*
X10174348Y-14261984D01*
X10269586Y-14261984D02*
X10269586Y-14128650D01*
X10269586Y-14147698D02*
X10279110Y-14138174D01*
X10279110Y-14138174D02*
X10298158Y-14128650D01*
X10298158Y-14128650D02*
X10326729Y-14128650D01*
X10326729Y-14128650D02*
X10345777Y-14138174D01*
X10345777Y-14138174D02*
X10355301Y-14157222D01*
X10355301Y-14157222D02*
X10355301Y-14261984D01*
X10355301Y-14157222D02*
X10364825Y-14138174D01*
X10364825Y-14138174D02*
X10383872Y-14128650D01*
X10383872Y-14128650D02*
X10412444Y-14128650D01*
X10412444Y-14128650D02*
X10431491Y-14138174D01*
X10431491Y-14138174D02*
X10441015Y-14157222D01*
X10441015Y-14157222D02*
X10441015Y-14261984D01*
X10831491Y-14052460D02*
X10660063Y-14309603D01*
X11088634Y-14061984D02*
X11107682Y-14061984D01*
X11107682Y-14061984D02*
X11126729Y-14071508D01*
X11126729Y-14071508D02*
X11136253Y-14081031D01*
X11136253Y-14081031D02*
X11145777Y-14100079D01*
X11145777Y-14100079D02*
X11155301Y-14138174D01*
X11155301Y-14138174D02*
X11155301Y-14185793D01*
X11155301Y-14185793D02*
X11145777Y-14223888D01*
X11145777Y-14223888D02*
X11136253Y-14242936D01*
X11136253Y-14242936D02*
X11126729Y-14252460D01*
X11126729Y-14252460D02*
X11107682Y-14261984D01*
X11107682Y-14261984D02*
X11088634Y-14261984D01*
X11088634Y-14261984D02*
X11069587Y-14252460D01*
X11069587Y-14252460D02*
X11060063Y-14242936D01*
X11060063Y-14242936D02*
X11050539Y-14223888D01*
X11050539Y-14223888D02*
X11041015Y-14185793D01*
X11041015Y-14185793D02*
X11041015Y-14138174D01*
X11041015Y-14138174D02*
X11050539Y-14100079D01*
X11050539Y-14100079D02*
X11060063Y-14081031D01*
X11060063Y-14081031D02*
X11069587Y-14071508D01*
X11069587Y-14071508D02*
X11088634Y-14061984D01*
X11241015Y-14242936D02*
X11250539Y-14252460D01*
X11250539Y-14252460D02*
X11241015Y-14261984D01*
X11241015Y-14261984D02*
X11231491Y-14252460D01*
X11231491Y-14252460D02*
X11241015Y-14242936D01*
X11241015Y-14242936D02*
X11241015Y-14261984D01*
X11374348Y-14061984D02*
X11393396Y-14061984D01*
X11393396Y-14061984D02*
X11412444Y-14071508D01*
X11412444Y-14071508D02*
X11421967Y-14081031D01*
X11421967Y-14081031D02*
X11431491Y-14100079D01*
X11431491Y-14100079D02*
X11441015Y-14138174D01*
X11441015Y-14138174D02*
X11441015Y-14185793D01*
X11441015Y-14185793D02*
X11431491Y-14223888D01*
X11431491Y-14223888D02*
X11421967Y-14242936D01*
X11421967Y-14242936D02*
X11412444Y-14252460D01*
X11412444Y-14252460D02*
X11393396Y-14261984D01*
X11393396Y-14261984D02*
X11374348Y-14261984D01*
X11374348Y-14261984D02*
X11355301Y-14252460D01*
X11355301Y-14252460D02*
X11345777Y-14242936D01*
X11345777Y-14242936D02*
X11336253Y-14223888D01*
X11336253Y-14223888D02*
X11326729Y-14185793D01*
X11326729Y-14185793D02*
X11326729Y-14138174D01*
X11326729Y-14138174D02*
X11336253Y-14100079D01*
X11336253Y-14100079D02*
X11345777Y-14081031D01*
X11345777Y-14081031D02*
X11355301Y-14071508D01*
X11355301Y-14071508D02*
X11374348Y-14061984D01*
X11631491Y-14261984D02*
X11517206Y-14261984D01*
X11574348Y-14261984D02*
X11574348Y-14061984D01*
X11574348Y-14061984D02*
X11555301Y-14090555D01*
X11555301Y-14090555D02*
X11536253Y-14109603D01*
X11536253Y-14109603D02*
X11517206Y-14119127D01*
X11821967Y-14261984D02*
X11707682Y-14261984D01*
X11764825Y-14261984D02*
X11764825Y-14061984D01*
X11764825Y-14061984D02*
X11745777Y-14090555D01*
X11745777Y-14090555D02*
X11726729Y-14109603D01*
X11726729Y-14109603D02*
X11707682Y-14119127D01*
X11936253Y-14147698D02*
X11917206Y-14138174D01*
X11917206Y-14138174D02*
X11907682Y-14128650D01*
X11907682Y-14128650D02*
X11898158Y-14109603D01*
X11898158Y-14109603D02*
X11898158Y-14100079D01*
X11898158Y-14100079D02*
X11907682Y-14081031D01*
X11907682Y-14081031D02*
X11917206Y-14071508D01*
X11917206Y-14071508D02*
X11936253Y-14061984D01*
X11936253Y-14061984D02*
X11974348Y-14061984D01*
X11974348Y-14061984D02*
X11993396Y-14071508D01*
X11993396Y-14071508D02*
X12002920Y-14081031D01*
X12002920Y-14081031D02*
X12012444Y-14100079D01*
X12012444Y-14100079D02*
X12012444Y-14109603D01*
X12012444Y-14109603D02*
X12002920Y-14128650D01*
X12002920Y-14128650D02*
X11993396Y-14138174D01*
X11993396Y-14138174D02*
X11974348Y-14147698D01*
X11974348Y-14147698D02*
X11936253Y-14147698D01*
X11936253Y-14147698D02*
X11917206Y-14157222D01*
X11917206Y-14157222D02*
X11907682Y-14166746D01*
X11907682Y-14166746D02*
X11898158Y-14185793D01*
X11898158Y-14185793D02*
X11898158Y-14223888D01*
X11898158Y-14223888D02*
X11907682Y-14242936D01*
X11907682Y-14242936D02*
X11917206Y-14252460D01*
X11917206Y-14252460D02*
X11936253Y-14261984D01*
X11936253Y-14261984D02*
X11974348Y-14261984D01*
X11974348Y-14261984D02*
X11993396Y-14252460D01*
X11993396Y-14252460D02*
X12002920Y-14242936D01*
X12002920Y-14242936D02*
X12012444Y-14223888D01*
X12012444Y-14223888D02*
X12012444Y-14185793D01*
X12012444Y-14185793D02*
X12002920Y-14166746D01*
X12002920Y-14166746D02*
X11993396Y-14157222D01*
X11993396Y-14157222D02*
X11974348Y-14147698D01*
X12088634Y-14061984D02*
X12088634Y-14100079D01*
X12164825Y-14061984D02*
X12164825Y-14100079D01*
X12460063Y-14338174D02*
X12450539Y-14328650D01*
X12450539Y-14328650D02*
X12431491Y-14300079D01*
X12431491Y-14300079D02*
X12421968Y-14281031D01*
X12421968Y-14281031D02*
X12412444Y-14252460D01*
X12412444Y-14252460D02*
X12402920Y-14204841D01*
X12402920Y-14204841D02*
X12402920Y-14166746D01*
X12402920Y-14166746D02*
X12412444Y-14119127D01*
X12412444Y-14119127D02*
X12421968Y-14090555D01*
X12421968Y-14090555D02*
X12431491Y-14071508D01*
X12431491Y-14071508D02*
X12450539Y-14042936D01*
X12450539Y-14042936D02*
X12460063Y-14033412D01*
X12517206Y-14061984D02*
X12650539Y-14061984D01*
X12650539Y-14061984D02*
X12564825Y-14261984D01*
X12821968Y-14061984D02*
X12726729Y-14061984D01*
X12726729Y-14061984D02*
X12717206Y-14157222D01*
X12717206Y-14157222D02*
X12726729Y-14147698D01*
X12726729Y-14147698D02*
X12745777Y-14138174D01*
X12745777Y-14138174D02*
X12793396Y-14138174D01*
X12793396Y-14138174D02*
X12812444Y-14147698D01*
X12812444Y-14147698D02*
X12821968Y-14157222D01*
X12821968Y-14157222D02*
X12831491Y-14176269D01*
X12831491Y-14176269D02*
X12831491Y-14223888D01*
X12831491Y-14223888D02*
X12821968Y-14242936D01*
X12821968Y-14242936D02*
X12812444Y-14252460D01*
X12812444Y-14252460D02*
X12793396Y-14261984D01*
X12793396Y-14261984D02*
X12745777Y-14261984D01*
X12745777Y-14261984D02*
X12726729Y-14252460D01*
X12726729Y-14252460D02*
X12717206Y-14242936D01*
X13069587Y-14261984D02*
X13069587Y-14061984D01*
X13155301Y-14261984D02*
X13155301Y-14157222D01*
X13155301Y-14157222D02*
X13145777Y-14138174D01*
X13145777Y-14138174D02*
X13126730Y-14128650D01*
X13126730Y-14128650D02*
X13098158Y-14128650D01*
X13098158Y-14128650D02*
X13079110Y-14138174D01*
X13079110Y-14138174D02*
X13069587Y-14147698D01*
X13279110Y-14261984D02*
X13260063Y-14252460D01*
X13260063Y-14252460D02*
X13250539Y-14242936D01*
X13250539Y-14242936D02*
X13241015Y-14223888D01*
X13241015Y-14223888D02*
X13241015Y-14166746D01*
X13241015Y-14166746D02*
X13250539Y-14147698D01*
X13250539Y-14147698D02*
X13260063Y-14138174D01*
X13260063Y-14138174D02*
X13279110Y-14128650D01*
X13279110Y-14128650D02*
X13307682Y-14128650D01*
X13307682Y-14128650D02*
X13326730Y-14138174D01*
X13326730Y-14138174D02*
X13336253Y-14147698D01*
X13336253Y-14147698D02*
X13345777Y-14166746D01*
X13345777Y-14166746D02*
X13345777Y-14223888D01*
X13345777Y-14223888D02*
X13336253Y-14242936D01*
X13336253Y-14242936D02*
X13326730Y-14252460D01*
X13326730Y-14252460D02*
X13307682Y-14261984D01*
X13307682Y-14261984D02*
X13279110Y-14261984D01*
X13460063Y-14261984D02*
X13441015Y-14252460D01*
X13441015Y-14252460D02*
X13431491Y-14233412D01*
X13431491Y-14233412D02*
X13431491Y-14061984D01*
X13612444Y-14252460D02*
X13593396Y-14261984D01*
X13593396Y-14261984D02*
X13555301Y-14261984D01*
X13555301Y-14261984D02*
X13536253Y-14252460D01*
X13536253Y-14252460D02*
X13526730Y-14233412D01*
X13526730Y-14233412D02*
X13526730Y-14157222D01*
X13526730Y-14157222D02*
X13536253Y-14138174D01*
X13536253Y-14138174D02*
X13555301Y-14128650D01*
X13555301Y-14128650D02*
X13593396Y-14128650D01*
X13593396Y-14128650D02*
X13612444Y-14138174D01*
X13612444Y-14138174D02*
X13621968Y-14157222D01*
X13621968Y-14157222D02*
X13621968Y-14176269D01*
X13621968Y-14176269D02*
X13526730Y-14195317D01*
X13698158Y-14252460D02*
X13717206Y-14261984D01*
X13717206Y-14261984D02*
X13755301Y-14261984D01*
X13755301Y-14261984D02*
X13774349Y-14252460D01*
X13774349Y-14252460D02*
X13783872Y-14233412D01*
X13783872Y-14233412D02*
X13783872Y-14223888D01*
X13783872Y-14223888D02*
X13774349Y-14204841D01*
X13774349Y-14204841D02*
X13755301Y-14195317D01*
X13755301Y-14195317D02*
X13726730Y-14195317D01*
X13726730Y-14195317D02*
X13707682Y-14185793D01*
X13707682Y-14185793D02*
X13698158Y-14166746D01*
X13698158Y-14166746D02*
X13698158Y-14157222D01*
X13698158Y-14157222D02*
X13707682Y-14138174D01*
X13707682Y-14138174D02*
X13726730Y-14128650D01*
X13726730Y-14128650D02*
X13755301Y-14128650D01*
X13755301Y-14128650D02*
X13774349Y-14138174D01*
X13850539Y-14338174D02*
X13860063Y-14328650D01*
X13860063Y-14328650D02*
X13879111Y-14300079D01*
X13879111Y-14300079D02*
X13888634Y-14281031D01*
X13888634Y-14281031D02*
X13898158Y-14252460D01*
X13898158Y-14252460D02*
X13907682Y-14204841D01*
X13907682Y-14204841D02*
X13907682Y-14166746D01*
X13907682Y-14166746D02*
X13898158Y-14119127D01*
X13898158Y-14119127D02*
X13888634Y-14090555D01*
X13888634Y-14090555D02*
X13879111Y-14071508D01*
X13879111Y-14071508D02*
X13860063Y-14042936D01*
X13860063Y-14042936D02*
X13850539Y-14033412D01*
D10*
X8885000Y-14434500D02*
G75*
G02*
X8845000Y-14434500I-20000J0D01*
G01*
X8845000Y-14434500D02*
G75*
G02*
X8885000Y-14434500I20000J0D01*
G01*
D11*
X9183872Y-14325984D02*
X9202920Y-14325984D01*
X9202920Y-14325984D02*
X9221967Y-14335508D01*
X9221967Y-14335508D02*
X9231491Y-14345031D01*
X9231491Y-14345031D02*
X9241015Y-14364079D01*
X9241015Y-14364079D02*
X9250539Y-14402174D01*
X9250539Y-14402174D02*
X9250539Y-14449793D01*
X9250539Y-14449793D02*
X9241015Y-14487888D01*
X9241015Y-14487888D02*
X9231491Y-14506936D01*
X9231491Y-14506936D02*
X9221967Y-14516460D01*
X9221967Y-14516460D02*
X9202920Y-14525984D01*
X9202920Y-14525984D02*
X9183872Y-14525984D01*
X9183872Y-14525984D02*
X9164824Y-14516460D01*
X9164824Y-14516460D02*
X9155301Y-14506936D01*
X9155301Y-14506936D02*
X9145777Y-14487888D01*
X9145777Y-14487888D02*
X9136253Y-14449793D01*
X9136253Y-14449793D02*
X9136253Y-14402174D01*
X9136253Y-14402174D02*
X9145777Y-14364079D01*
X9145777Y-14364079D02*
X9155301Y-14345031D01*
X9155301Y-14345031D02*
X9164824Y-14335508D01*
X9164824Y-14335508D02*
X9183872Y-14325984D01*
X9336253Y-14506936D02*
X9345777Y-14516460D01*
X9345777Y-14516460D02*
X9336253Y-14525984D01*
X9336253Y-14525984D02*
X9326729Y-14516460D01*
X9326729Y-14516460D02*
X9336253Y-14506936D01*
X9336253Y-14506936D02*
X9336253Y-14525984D01*
X9517205Y-14392650D02*
X9517205Y-14525984D01*
X9469586Y-14316460D02*
X9421967Y-14459317D01*
X9421967Y-14459317D02*
X9545777Y-14459317D01*
X9660063Y-14325984D02*
X9679110Y-14325984D01*
X9679110Y-14325984D02*
X9698158Y-14335508D01*
X9698158Y-14335508D02*
X9707682Y-14345031D01*
X9707682Y-14345031D02*
X9717205Y-14364079D01*
X9717205Y-14364079D02*
X9726729Y-14402174D01*
X9726729Y-14402174D02*
X9726729Y-14449793D01*
X9726729Y-14449793D02*
X9717205Y-14487888D01*
X9717205Y-14487888D02*
X9707682Y-14506936D01*
X9707682Y-14506936D02*
X9698158Y-14516460D01*
X9698158Y-14516460D02*
X9679110Y-14525984D01*
X9679110Y-14525984D02*
X9660063Y-14525984D01*
X9660063Y-14525984D02*
X9641015Y-14516460D01*
X9641015Y-14516460D02*
X9631491Y-14506936D01*
X9631491Y-14506936D02*
X9621967Y-14487888D01*
X9621967Y-14487888D02*
X9612444Y-14449793D01*
X9612444Y-14449793D02*
X9612444Y-14402174D01*
X9612444Y-14402174D02*
X9621967Y-14364079D01*
X9621967Y-14364079D02*
X9631491Y-14345031D01*
X9631491Y-14345031D02*
X9641015Y-14335508D01*
X9641015Y-14335508D02*
X9660063Y-14325984D01*
X9850539Y-14325984D02*
X9869586Y-14325984D01*
X9869586Y-14325984D02*
X9888634Y-14335508D01*
X9888634Y-14335508D02*
X9898158Y-14345031D01*
X9898158Y-14345031D02*
X9907682Y-14364079D01*
X9907682Y-14364079D02*
X9917205Y-14402174D01*
X9917205Y-14402174D02*
X9917205Y-14449793D01*
X9917205Y-14449793D02*
X9907682Y-14487888D01*
X9907682Y-14487888D02*
X9898158Y-14506936D01*
X9898158Y-14506936D02*
X9888634Y-14516460D01*
X9888634Y-14516460D02*
X9869586Y-14525984D01*
X9869586Y-14525984D02*
X9850539Y-14525984D01*
X9850539Y-14525984D02*
X9831491Y-14516460D01*
X9831491Y-14516460D02*
X9821967Y-14506936D01*
X9821967Y-14506936D02*
X9812444Y-14487888D01*
X9812444Y-14487888D02*
X9802920Y-14449793D01*
X9802920Y-14449793D02*
X9802920Y-14402174D01*
X9802920Y-14402174D02*
X9812444Y-14364079D01*
X9812444Y-14364079D02*
X9821967Y-14345031D01*
X9821967Y-14345031D02*
X9831491Y-14335508D01*
X9831491Y-14335508D02*
X9850539Y-14325984D01*
X10002920Y-14525984D02*
X10002920Y-14392650D01*
X10002920Y-14411698D02*
X10012444Y-14402174D01*
X10012444Y-14402174D02*
X10031491Y-14392650D01*
X10031491Y-14392650D02*
X10060063Y-14392650D01*
X10060063Y-14392650D02*
X10079110Y-14402174D01*
X10079110Y-14402174D02*
X10088634Y-14421222D01*
X10088634Y-14421222D02*
X10088634Y-14525984D01*
X10088634Y-14421222D02*
X10098158Y-14402174D01*
X10098158Y-14402174D02*
X10117205Y-14392650D01*
X10117205Y-14392650D02*
X10145777Y-14392650D01*
X10145777Y-14392650D02*
X10164825Y-14402174D01*
X10164825Y-14402174D02*
X10174348Y-14421222D01*
X10174348Y-14421222D02*
X10174348Y-14525984D01*
X10269586Y-14525984D02*
X10269586Y-14392650D01*
X10269586Y-14411698D02*
X10279110Y-14402174D01*
X10279110Y-14402174D02*
X10298158Y-14392650D01*
X10298158Y-14392650D02*
X10326729Y-14392650D01*
X10326729Y-14392650D02*
X10345777Y-14402174D01*
X10345777Y-14402174D02*
X10355301Y-14421222D01*
X10355301Y-14421222D02*
X10355301Y-14525984D01*
X10355301Y-14421222D02*
X10364825Y-14402174D01*
X10364825Y-14402174D02*
X10383872Y-14392650D01*
X10383872Y-14392650D02*
X10412444Y-14392650D01*
X10412444Y-14392650D02*
X10431491Y-14402174D01*
X10431491Y-14402174D02*
X10441015Y-14421222D01*
X10441015Y-14421222D02*
X10441015Y-14525984D01*
X10831491Y-14316460D02*
X10660063Y-14573603D01*
X11088634Y-14325984D02*
X11107682Y-14325984D01*
X11107682Y-14325984D02*
X11126729Y-14335508D01*
X11126729Y-14335508D02*
X11136253Y-14345031D01*
X11136253Y-14345031D02*
X11145777Y-14364079D01*
X11145777Y-14364079D02*
X11155301Y-14402174D01*
X11155301Y-14402174D02*
X11155301Y-14449793D01*
X11155301Y-14449793D02*
X11145777Y-14487888D01*
X11145777Y-14487888D02*
X11136253Y-14506936D01*
X11136253Y-14506936D02*
X11126729Y-14516460D01*
X11126729Y-14516460D02*
X11107682Y-14525984D01*
X11107682Y-14525984D02*
X11088634Y-14525984D01*
X11088634Y-14525984D02*
X11069587Y-14516460D01*
X11069587Y-14516460D02*
X11060063Y-14506936D01*
X11060063Y-14506936D02*
X11050539Y-14487888D01*
X11050539Y-14487888D02*
X11041015Y-14449793D01*
X11041015Y-14449793D02*
X11041015Y-14402174D01*
X11041015Y-14402174D02*
X11050539Y-14364079D01*
X11050539Y-14364079D02*
X11060063Y-14345031D01*
X11060063Y-14345031D02*
X11069587Y-14335508D01*
X11069587Y-14335508D02*
X11088634Y-14325984D01*
X11241015Y-14506936D02*
X11250539Y-14516460D01*
X11250539Y-14516460D02*
X11241015Y-14525984D01*
X11241015Y-14525984D02*
X11231491Y-14516460D01*
X11231491Y-14516460D02*
X11241015Y-14506936D01*
X11241015Y-14506936D02*
X11241015Y-14525984D01*
X11374348Y-14325984D02*
X11393396Y-14325984D01*
X11393396Y-14325984D02*
X11412444Y-14335508D01*
X11412444Y-14335508D02*
X11421967Y-14345031D01*
X11421967Y-14345031D02*
X11431491Y-14364079D01*
X11431491Y-14364079D02*
X11441015Y-14402174D01*
X11441015Y-14402174D02*
X11441015Y-14449793D01*
X11441015Y-14449793D02*
X11431491Y-14487888D01*
X11431491Y-14487888D02*
X11421967Y-14506936D01*
X11421967Y-14506936D02*
X11412444Y-14516460D01*
X11412444Y-14516460D02*
X11393396Y-14525984D01*
X11393396Y-14525984D02*
X11374348Y-14525984D01*
X11374348Y-14525984D02*
X11355301Y-14516460D01*
X11355301Y-14516460D02*
X11345777Y-14506936D01*
X11345777Y-14506936D02*
X11336253Y-14487888D01*
X11336253Y-14487888D02*
X11326729Y-14449793D01*
X11326729Y-14449793D02*
X11326729Y-14402174D01*
X11326729Y-14402174D02*
X11336253Y-14364079D01*
X11336253Y-14364079D02*
X11345777Y-14345031D01*
X11345777Y-14345031D02*
X11355301Y-14335508D01*
X11355301Y-14335508D02*
X11374348Y-14325984D01*
X11631491Y-14525984D02*
X11517206Y-14525984D01*
X11574348Y-14525984D02*
X11574348Y-14325984D01*
X11574348Y-14325984D02*
X11555301Y-14354555D01*
X11555301Y-14354555D02*
X11536253Y-14373603D01*
X11536253Y-14373603D02*
X11517206Y-14383127D01*
X11812444Y-14325984D02*
X11717206Y-14325984D01*
X11717206Y-14325984D02*
X11707682Y-14421222D01*
X11707682Y-14421222D02*
X11717206Y-14411698D01*
X11717206Y-14411698D02*
X11736253Y-14402174D01*
X11736253Y-14402174D02*
X11783872Y-14402174D01*
X11783872Y-14402174D02*
X11802920Y-14411698D01*
X11802920Y-14411698D02*
X11812444Y-14421222D01*
X11812444Y-14421222D02*
X11821967Y-14440269D01*
X11821967Y-14440269D02*
X11821967Y-14487888D01*
X11821967Y-14487888D02*
X11812444Y-14506936D01*
X11812444Y-14506936D02*
X11802920Y-14516460D01*
X11802920Y-14516460D02*
X11783872Y-14525984D01*
X11783872Y-14525984D02*
X11736253Y-14525984D01*
X11736253Y-14525984D02*
X11717206Y-14516460D01*
X11717206Y-14516460D02*
X11707682Y-14506936D01*
X11888634Y-14325984D02*
X12021967Y-14325984D01*
X12021967Y-14325984D02*
X11936253Y-14525984D01*
X12088634Y-14325984D02*
X12088634Y-14364079D01*
X12164825Y-14325984D02*
X12164825Y-14364079D01*
X12460063Y-14602174D02*
X12450539Y-14592650D01*
X12450539Y-14592650D02*
X12431491Y-14564079D01*
X12431491Y-14564079D02*
X12421968Y-14545031D01*
X12421968Y-14545031D02*
X12412444Y-14516460D01*
X12412444Y-14516460D02*
X12402920Y-14468841D01*
X12402920Y-14468841D02*
X12402920Y-14430746D01*
X12402920Y-14430746D02*
X12412444Y-14383127D01*
X12412444Y-14383127D02*
X12421968Y-14354555D01*
X12421968Y-14354555D02*
X12431491Y-14335508D01*
X12431491Y-14335508D02*
X12450539Y-14306936D01*
X12450539Y-14306936D02*
X12460063Y-14297412D01*
X12526729Y-14345031D02*
X12536253Y-14335508D01*
X12536253Y-14335508D02*
X12555301Y-14325984D01*
X12555301Y-14325984D02*
X12602920Y-14325984D01*
X12602920Y-14325984D02*
X12621968Y-14335508D01*
X12621968Y-14335508D02*
X12631491Y-14345031D01*
X12631491Y-14345031D02*
X12641015Y-14364079D01*
X12641015Y-14364079D02*
X12641015Y-14383127D01*
X12641015Y-14383127D02*
X12631491Y-14411698D01*
X12631491Y-14411698D02*
X12517206Y-14525984D01*
X12517206Y-14525984D02*
X12641015Y-14525984D01*
X12879110Y-14525984D02*
X12879110Y-14325984D01*
X12964825Y-14525984D02*
X12964825Y-14421222D01*
X12964825Y-14421222D02*
X12955301Y-14402174D01*
X12955301Y-14402174D02*
X12936253Y-14392650D01*
X12936253Y-14392650D02*
X12907682Y-14392650D01*
X12907682Y-14392650D02*
X12888634Y-14402174D01*
X12888634Y-14402174D02*
X12879110Y-14411698D01*
X13088634Y-14525984D02*
X13069587Y-14516460D01*
X13069587Y-14516460D02*
X13060063Y-14506936D01*
X13060063Y-14506936D02*
X13050539Y-14487888D01*
X13050539Y-14487888D02*
X13050539Y-14430746D01*
X13050539Y-14430746D02*
X13060063Y-14411698D01*
X13060063Y-14411698D02*
X13069587Y-14402174D01*
X13069587Y-14402174D02*
X13088634Y-14392650D01*
X13088634Y-14392650D02*
X13117206Y-14392650D01*
X13117206Y-14392650D02*
X13136253Y-14402174D01*
X13136253Y-14402174D02*
X13145777Y-14411698D01*
X13145777Y-14411698D02*
X13155301Y-14430746D01*
X13155301Y-14430746D02*
X13155301Y-14487888D01*
X13155301Y-14487888D02*
X13145777Y-14506936D01*
X13145777Y-14506936D02*
X13136253Y-14516460D01*
X13136253Y-14516460D02*
X13117206Y-14525984D01*
X13117206Y-14525984D02*
X13088634Y-14525984D01*
X13269587Y-14525984D02*
X13250539Y-14516460D01*
X13250539Y-14516460D02*
X13241015Y-14497412D01*
X13241015Y-14497412D02*
X13241015Y-14325984D01*
X13421968Y-14516460D02*
X13402920Y-14525984D01*
X13402920Y-14525984D02*
X13364825Y-14525984D01*
X13364825Y-14525984D02*
X13345777Y-14516460D01*
X13345777Y-14516460D02*
X13336253Y-14497412D01*
X13336253Y-14497412D02*
X13336253Y-14421222D01*
X13336253Y-14421222D02*
X13345777Y-14402174D01*
X13345777Y-14402174D02*
X13364825Y-14392650D01*
X13364825Y-14392650D02*
X13402920Y-14392650D01*
X13402920Y-14392650D02*
X13421968Y-14402174D01*
X13421968Y-14402174D02*
X13431491Y-14421222D01*
X13431491Y-14421222D02*
X13431491Y-14440269D01*
X13431491Y-14440269D02*
X13336253Y-14459317D01*
X13507682Y-14516460D02*
X13526730Y-14525984D01*
X13526730Y-14525984D02*
X13564825Y-14525984D01*
X13564825Y-14525984D02*
X13583872Y-14516460D01*
X13583872Y-14516460D02*
X13593396Y-14497412D01*
X13593396Y-14497412D02*
X13593396Y-14487888D01*
X13593396Y-14487888D02*
X13583872Y-14468841D01*
X13583872Y-14468841D02*
X13564825Y-14459317D01*
X13564825Y-14459317D02*
X13536253Y-14459317D01*
X13536253Y-14459317D02*
X13517206Y-14449793D01*
X13517206Y-14449793D02*
X13507682Y-14430746D01*
X13507682Y-14430746D02*
X13507682Y-14421222D01*
X13507682Y-14421222D02*
X13517206Y-14402174D01*
X13517206Y-14402174D02*
X13536253Y-14392650D01*
X13536253Y-14392650D02*
X13564825Y-14392650D01*
X13564825Y-14392650D02*
X13583872Y-14402174D01*
X13660063Y-14602174D02*
X13669587Y-14592650D01*
X13669587Y-14592650D02*
X13688634Y-14564079D01*
X13688634Y-14564079D02*
X13698158Y-14545031D01*
X13698158Y-14545031D02*
X13707682Y-14516460D01*
X13707682Y-14516460D02*
X13717206Y-14468841D01*
X13717206Y-14468841D02*
X13717206Y-14430746D01*
X13717206Y-14430746D02*
X13707682Y-14383127D01*
X13707682Y-14383127D02*
X13698158Y-14354555D01*
X13698158Y-14354555D02*
X13688634Y-14335508D01*
X13688634Y-14335508D02*
X13669587Y-14306936D01*
X13669587Y-14306936D02*
X13660063Y-14297412D01*
D10*
X8845000Y-14658500D02*
X8845000Y-14738500D01*
X8805000Y-14698500D02*
X8885000Y-14698500D01*
D11*
X9183872Y-14589984D02*
X9202920Y-14589984D01*
X9202920Y-14589984D02*
X9221967Y-14599508D01*
X9221967Y-14599508D02*
X9231491Y-14609031D01*
X9231491Y-14609031D02*
X9241015Y-14628079D01*
X9241015Y-14628079D02*
X9250539Y-14666174D01*
X9250539Y-14666174D02*
X9250539Y-14713793D01*
X9250539Y-14713793D02*
X9241015Y-14751888D01*
X9241015Y-14751888D02*
X9231491Y-14770936D01*
X9231491Y-14770936D02*
X9221967Y-14780460D01*
X9221967Y-14780460D02*
X9202920Y-14789984D01*
X9202920Y-14789984D02*
X9183872Y-14789984D01*
X9183872Y-14789984D02*
X9164824Y-14780460D01*
X9164824Y-14780460D02*
X9155301Y-14770936D01*
X9155301Y-14770936D02*
X9145777Y-14751888D01*
X9145777Y-14751888D02*
X9136253Y-14713793D01*
X9136253Y-14713793D02*
X9136253Y-14666174D01*
X9136253Y-14666174D02*
X9145777Y-14628079D01*
X9145777Y-14628079D02*
X9155301Y-14609031D01*
X9155301Y-14609031D02*
X9164824Y-14599508D01*
X9164824Y-14599508D02*
X9183872Y-14589984D01*
X9336253Y-14770936D02*
X9345777Y-14780460D01*
X9345777Y-14780460D02*
X9336253Y-14789984D01*
X9336253Y-14789984D02*
X9326729Y-14780460D01*
X9326729Y-14780460D02*
X9336253Y-14770936D01*
X9336253Y-14770936D02*
X9336253Y-14789984D01*
X9460063Y-14675698D02*
X9441015Y-14666174D01*
X9441015Y-14666174D02*
X9431491Y-14656650D01*
X9431491Y-14656650D02*
X9421967Y-14637603D01*
X9421967Y-14637603D02*
X9421967Y-14628079D01*
X9421967Y-14628079D02*
X9431491Y-14609031D01*
X9431491Y-14609031D02*
X9441015Y-14599508D01*
X9441015Y-14599508D02*
X9460063Y-14589984D01*
X9460063Y-14589984D02*
X9498158Y-14589984D01*
X9498158Y-14589984D02*
X9517205Y-14599508D01*
X9517205Y-14599508D02*
X9526729Y-14609031D01*
X9526729Y-14609031D02*
X9536253Y-14628079D01*
X9536253Y-14628079D02*
X9536253Y-14637603D01*
X9536253Y-14637603D02*
X9526729Y-14656650D01*
X9526729Y-14656650D02*
X9517205Y-14666174D01*
X9517205Y-14666174D02*
X9498158Y-14675698D01*
X9498158Y-14675698D02*
X9460063Y-14675698D01*
X9460063Y-14675698D02*
X9441015Y-14685222D01*
X9441015Y-14685222D02*
X9431491Y-14694746D01*
X9431491Y-14694746D02*
X9421967Y-14713793D01*
X9421967Y-14713793D02*
X9421967Y-14751888D01*
X9421967Y-14751888D02*
X9431491Y-14770936D01*
X9431491Y-14770936D02*
X9441015Y-14780460D01*
X9441015Y-14780460D02*
X9460063Y-14789984D01*
X9460063Y-14789984D02*
X9498158Y-14789984D01*
X9498158Y-14789984D02*
X9517205Y-14780460D01*
X9517205Y-14780460D02*
X9526729Y-14770936D01*
X9526729Y-14770936D02*
X9536253Y-14751888D01*
X9536253Y-14751888D02*
X9536253Y-14713793D01*
X9536253Y-14713793D02*
X9526729Y-14694746D01*
X9526729Y-14694746D02*
X9517205Y-14685222D01*
X9517205Y-14685222D02*
X9498158Y-14675698D01*
X9660063Y-14589984D02*
X9679110Y-14589984D01*
X9679110Y-14589984D02*
X9698158Y-14599508D01*
X9698158Y-14599508D02*
X9707682Y-14609031D01*
X9707682Y-14609031D02*
X9717205Y-14628079D01*
X9717205Y-14628079D02*
X9726729Y-14666174D01*
X9726729Y-14666174D02*
X9726729Y-14713793D01*
X9726729Y-14713793D02*
X9717205Y-14751888D01*
X9717205Y-14751888D02*
X9707682Y-14770936D01*
X9707682Y-14770936D02*
X9698158Y-14780460D01*
X9698158Y-14780460D02*
X9679110Y-14789984D01*
X9679110Y-14789984D02*
X9660063Y-14789984D01*
X9660063Y-14789984D02*
X9641015Y-14780460D01*
X9641015Y-14780460D02*
X9631491Y-14770936D01*
X9631491Y-14770936D02*
X9621967Y-14751888D01*
X9621967Y-14751888D02*
X9612444Y-14713793D01*
X9612444Y-14713793D02*
X9612444Y-14666174D01*
X9612444Y-14666174D02*
X9621967Y-14628079D01*
X9621967Y-14628079D02*
X9631491Y-14609031D01*
X9631491Y-14609031D02*
X9641015Y-14599508D01*
X9641015Y-14599508D02*
X9660063Y-14589984D01*
X9850539Y-14589984D02*
X9869586Y-14589984D01*
X9869586Y-14589984D02*
X9888634Y-14599508D01*
X9888634Y-14599508D02*
X9898158Y-14609031D01*
X9898158Y-14609031D02*
X9907682Y-14628079D01*
X9907682Y-14628079D02*
X9917205Y-14666174D01*
X9917205Y-14666174D02*
X9917205Y-14713793D01*
X9917205Y-14713793D02*
X9907682Y-14751888D01*
X9907682Y-14751888D02*
X9898158Y-14770936D01*
X9898158Y-14770936D02*
X9888634Y-14780460D01*
X9888634Y-14780460D02*
X9869586Y-14789984D01*
X9869586Y-14789984D02*
X9850539Y-14789984D01*
X9850539Y-14789984D02*
X9831491Y-14780460D01*
X9831491Y-14780460D02*
X9821967Y-14770936D01*
X9821967Y-14770936D02*
X9812444Y-14751888D01*
X9812444Y-14751888D02*
X9802920Y-14713793D01*
X9802920Y-14713793D02*
X9802920Y-14666174D01*
X9802920Y-14666174D02*
X9812444Y-14628079D01*
X9812444Y-14628079D02*
X9821967Y-14609031D01*
X9821967Y-14609031D02*
X9831491Y-14599508D01*
X9831491Y-14599508D02*
X9850539Y-14589984D01*
X10002920Y-14789984D02*
X10002920Y-14656650D01*
X10002920Y-14675698D02*
X10012444Y-14666174D01*
X10012444Y-14666174D02*
X10031491Y-14656650D01*
X10031491Y-14656650D02*
X10060063Y-14656650D01*
X10060063Y-14656650D02*
X10079110Y-14666174D01*
X10079110Y-14666174D02*
X10088634Y-14685222D01*
X10088634Y-14685222D02*
X10088634Y-14789984D01*
X10088634Y-14685222D02*
X10098158Y-14666174D01*
X10098158Y-14666174D02*
X10117205Y-14656650D01*
X10117205Y-14656650D02*
X10145777Y-14656650D01*
X10145777Y-14656650D02*
X10164825Y-14666174D01*
X10164825Y-14666174D02*
X10174348Y-14685222D01*
X10174348Y-14685222D02*
X10174348Y-14789984D01*
X10269586Y-14789984D02*
X10269586Y-14656650D01*
X10269586Y-14675698D02*
X10279110Y-14666174D01*
X10279110Y-14666174D02*
X10298158Y-14656650D01*
X10298158Y-14656650D02*
X10326729Y-14656650D01*
X10326729Y-14656650D02*
X10345777Y-14666174D01*
X10345777Y-14666174D02*
X10355301Y-14685222D01*
X10355301Y-14685222D02*
X10355301Y-14789984D01*
X10355301Y-14685222D02*
X10364825Y-14666174D01*
X10364825Y-14666174D02*
X10383872Y-14656650D01*
X10383872Y-14656650D02*
X10412444Y-14656650D01*
X10412444Y-14656650D02*
X10431491Y-14666174D01*
X10431491Y-14666174D02*
X10441015Y-14685222D01*
X10441015Y-14685222D02*
X10441015Y-14789984D01*
X10831491Y-14580460D02*
X10660063Y-14837603D01*
X11088634Y-14589984D02*
X11107682Y-14589984D01*
X11107682Y-14589984D02*
X11126729Y-14599508D01*
X11126729Y-14599508D02*
X11136253Y-14609031D01*
X11136253Y-14609031D02*
X11145777Y-14628079D01*
X11145777Y-14628079D02*
X11155301Y-14666174D01*
X11155301Y-14666174D02*
X11155301Y-14713793D01*
X11155301Y-14713793D02*
X11145777Y-14751888D01*
X11145777Y-14751888D02*
X11136253Y-14770936D01*
X11136253Y-14770936D02*
X11126729Y-14780460D01*
X11126729Y-14780460D02*
X11107682Y-14789984D01*
X11107682Y-14789984D02*
X11088634Y-14789984D01*
X11088634Y-14789984D02*
X11069587Y-14780460D01*
X11069587Y-14780460D02*
X11060063Y-14770936D01*
X11060063Y-14770936D02*
X11050539Y-14751888D01*
X11050539Y-14751888D02*
X11041015Y-14713793D01*
X11041015Y-14713793D02*
X11041015Y-14666174D01*
X11041015Y-14666174D02*
X11050539Y-14628079D01*
X11050539Y-14628079D02*
X11060063Y-14609031D01*
X11060063Y-14609031D02*
X11069587Y-14599508D01*
X11069587Y-14599508D02*
X11088634Y-14589984D01*
X11241015Y-14770936D02*
X11250539Y-14780460D01*
X11250539Y-14780460D02*
X11241015Y-14789984D01*
X11241015Y-14789984D02*
X11231491Y-14780460D01*
X11231491Y-14780460D02*
X11241015Y-14770936D01*
X11241015Y-14770936D02*
X11241015Y-14789984D01*
X11374348Y-14589984D02*
X11393396Y-14589984D01*
X11393396Y-14589984D02*
X11412444Y-14599508D01*
X11412444Y-14599508D02*
X11421967Y-14609031D01*
X11421967Y-14609031D02*
X11431491Y-14628079D01*
X11431491Y-14628079D02*
X11441015Y-14666174D01*
X11441015Y-14666174D02*
X11441015Y-14713793D01*
X11441015Y-14713793D02*
X11431491Y-14751888D01*
X11431491Y-14751888D02*
X11421967Y-14770936D01*
X11421967Y-14770936D02*
X11412444Y-14780460D01*
X11412444Y-14780460D02*
X11393396Y-14789984D01*
X11393396Y-14789984D02*
X11374348Y-14789984D01*
X11374348Y-14789984D02*
X11355301Y-14780460D01*
X11355301Y-14780460D02*
X11345777Y-14770936D01*
X11345777Y-14770936D02*
X11336253Y-14751888D01*
X11336253Y-14751888D02*
X11326729Y-14713793D01*
X11326729Y-14713793D02*
X11326729Y-14666174D01*
X11326729Y-14666174D02*
X11336253Y-14628079D01*
X11336253Y-14628079D02*
X11345777Y-14609031D01*
X11345777Y-14609031D02*
X11355301Y-14599508D01*
X11355301Y-14599508D02*
X11374348Y-14589984D01*
X11507682Y-14589984D02*
X11631491Y-14589984D01*
X11631491Y-14589984D02*
X11564825Y-14666174D01*
X11564825Y-14666174D02*
X11593396Y-14666174D01*
X11593396Y-14666174D02*
X11612444Y-14675698D01*
X11612444Y-14675698D02*
X11621967Y-14685222D01*
X11621967Y-14685222D02*
X11631491Y-14704269D01*
X11631491Y-14704269D02*
X11631491Y-14751888D01*
X11631491Y-14751888D02*
X11621967Y-14770936D01*
X11621967Y-14770936D02*
X11612444Y-14780460D01*
X11612444Y-14780460D02*
X11593396Y-14789984D01*
X11593396Y-14789984D02*
X11536253Y-14789984D01*
X11536253Y-14789984D02*
X11517206Y-14780460D01*
X11517206Y-14780460D02*
X11507682Y-14770936D01*
X11821967Y-14789984D02*
X11707682Y-14789984D01*
X11764825Y-14789984D02*
X11764825Y-14589984D01*
X11764825Y-14589984D02*
X11745777Y-14618555D01*
X11745777Y-14618555D02*
X11726729Y-14637603D01*
X11726729Y-14637603D02*
X11707682Y-14647127D01*
X12002920Y-14589984D02*
X11907682Y-14589984D01*
X11907682Y-14589984D02*
X11898158Y-14685222D01*
X11898158Y-14685222D02*
X11907682Y-14675698D01*
X11907682Y-14675698D02*
X11926729Y-14666174D01*
X11926729Y-14666174D02*
X11974348Y-14666174D01*
X11974348Y-14666174D02*
X11993396Y-14675698D01*
X11993396Y-14675698D02*
X12002920Y-14685222D01*
X12002920Y-14685222D02*
X12012444Y-14704269D01*
X12012444Y-14704269D02*
X12012444Y-14751888D01*
X12012444Y-14751888D02*
X12002920Y-14770936D01*
X12002920Y-14770936D02*
X11993396Y-14780460D01*
X11993396Y-14780460D02*
X11974348Y-14789984D01*
X11974348Y-14789984D02*
X11926729Y-14789984D01*
X11926729Y-14789984D02*
X11907682Y-14780460D01*
X11907682Y-14780460D02*
X11898158Y-14770936D01*
X12088634Y-14589984D02*
X12088634Y-14628079D01*
X12164825Y-14589984D02*
X12164825Y-14628079D01*
X12460063Y-14866174D02*
X12450539Y-14856650D01*
X12450539Y-14856650D02*
X12431491Y-14828079D01*
X12431491Y-14828079D02*
X12421968Y-14809031D01*
X12421968Y-14809031D02*
X12412444Y-14780460D01*
X12412444Y-14780460D02*
X12402920Y-14732841D01*
X12402920Y-14732841D02*
X12402920Y-14694746D01*
X12402920Y-14694746D02*
X12412444Y-14647127D01*
X12412444Y-14647127D02*
X12421968Y-14618555D01*
X12421968Y-14618555D02*
X12431491Y-14599508D01*
X12431491Y-14599508D02*
X12450539Y-14570936D01*
X12450539Y-14570936D02*
X12460063Y-14561412D01*
X12564825Y-14675698D02*
X12545777Y-14666174D01*
X12545777Y-14666174D02*
X12536253Y-14656650D01*
X12536253Y-14656650D02*
X12526729Y-14637603D01*
X12526729Y-14637603D02*
X12526729Y-14628079D01*
X12526729Y-14628079D02*
X12536253Y-14609031D01*
X12536253Y-14609031D02*
X12545777Y-14599508D01*
X12545777Y-14599508D02*
X12564825Y-14589984D01*
X12564825Y-14589984D02*
X12602920Y-14589984D01*
X12602920Y-14589984D02*
X12621968Y-14599508D01*
X12621968Y-14599508D02*
X12631491Y-14609031D01*
X12631491Y-14609031D02*
X12641015Y-14628079D01*
X12641015Y-14628079D02*
X12641015Y-14637603D01*
X12641015Y-14637603D02*
X12631491Y-14656650D01*
X12631491Y-14656650D02*
X12621968Y-14666174D01*
X12621968Y-14666174D02*
X12602920Y-14675698D01*
X12602920Y-14675698D02*
X12564825Y-14675698D01*
X12564825Y-14675698D02*
X12545777Y-14685222D01*
X12545777Y-14685222D02*
X12536253Y-14694746D01*
X12536253Y-14694746D02*
X12526729Y-14713793D01*
X12526729Y-14713793D02*
X12526729Y-14751888D01*
X12526729Y-14751888D02*
X12536253Y-14770936D01*
X12536253Y-14770936D02*
X12545777Y-14780460D01*
X12545777Y-14780460D02*
X12564825Y-14789984D01*
X12564825Y-14789984D02*
X12602920Y-14789984D01*
X12602920Y-14789984D02*
X12621968Y-14780460D01*
X12621968Y-14780460D02*
X12631491Y-14770936D01*
X12631491Y-14770936D02*
X12641015Y-14751888D01*
X12641015Y-14751888D02*
X12641015Y-14713793D01*
X12641015Y-14713793D02*
X12631491Y-14694746D01*
X12631491Y-14694746D02*
X12621968Y-14685222D01*
X12621968Y-14685222D02*
X12602920Y-14675698D01*
X12879110Y-14789984D02*
X12879110Y-14589984D01*
X12964825Y-14789984D02*
X12964825Y-14685222D01*
X12964825Y-14685222D02*
X12955301Y-14666174D01*
X12955301Y-14666174D02*
X12936253Y-14656650D01*
X12936253Y-14656650D02*
X12907682Y-14656650D01*
X12907682Y-14656650D02*
X12888634Y-14666174D01*
X12888634Y-14666174D02*
X12879110Y-14675698D01*
X13088634Y-14789984D02*
X13069587Y-14780460D01*
X13069587Y-14780460D02*
X13060063Y-14770936D01*
X13060063Y-14770936D02*
X13050539Y-14751888D01*
X13050539Y-14751888D02*
X13050539Y-14694746D01*
X13050539Y-14694746D02*
X13060063Y-14675698D01*
X13060063Y-14675698D02*
X13069587Y-14666174D01*
X13069587Y-14666174D02*
X13088634Y-14656650D01*
X13088634Y-14656650D02*
X13117206Y-14656650D01*
X13117206Y-14656650D02*
X13136253Y-14666174D01*
X13136253Y-14666174D02*
X13145777Y-14675698D01*
X13145777Y-14675698D02*
X13155301Y-14694746D01*
X13155301Y-14694746D02*
X13155301Y-14751888D01*
X13155301Y-14751888D02*
X13145777Y-14770936D01*
X13145777Y-14770936D02*
X13136253Y-14780460D01*
X13136253Y-14780460D02*
X13117206Y-14789984D01*
X13117206Y-14789984D02*
X13088634Y-14789984D01*
X13269587Y-14789984D02*
X13250539Y-14780460D01*
X13250539Y-14780460D02*
X13241015Y-14761412D01*
X13241015Y-14761412D02*
X13241015Y-14589984D01*
X13421968Y-14780460D02*
X13402920Y-14789984D01*
X13402920Y-14789984D02*
X13364825Y-14789984D01*
X13364825Y-14789984D02*
X13345777Y-14780460D01*
X13345777Y-14780460D02*
X13336253Y-14761412D01*
X13336253Y-14761412D02*
X13336253Y-14685222D01*
X13336253Y-14685222D02*
X13345777Y-14666174D01*
X13345777Y-14666174D02*
X13364825Y-14656650D01*
X13364825Y-14656650D02*
X13402920Y-14656650D01*
X13402920Y-14656650D02*
X13421968Y-14666174D01*
X13421968Y-14666174D02*
X13431491Y-14685222D01*
X13431491Y-14685222D02*
X13431491Y-14704269D01*
X13431491Y-14704269D02*
X13336253Y-14723317D01*
X13507682Y-14780460D02*
X13526730Y-14789984D01*
X13526730Y-14789984D02*
X13564825Y-14789984D01*
X13564825Y-14789984D02*
X13583872Y-14780460D01*
X13583872Y-14780460D02*
X13593396Y-14761412D01*
X13593396Y-14761412D02*
X13593396Y-14751888D01*
X13593396Y-14751888D02*
X13583872Y-14732841D01*
X13583872Y-14732841D02*
X13564825Y-14723317D01*
X13564825Y-14723317D02*
X13536253Y-14723317D01*
X13536253Y-14723317D02*
X13517206Y-14713793D01*
X13517206Y-14713793D02*
X13507682Y-14694746D01*
X13507682Y-14694746D02*
X13507682Y-14685222D01*
X13507682Y-14685222D02*
X13517206Y-14666174D01*
X13517206Y-14666174D02*
X13536253Y-14656650D01*
X13536253Y-14656650D02*
X13564825Y-14656650D01*
X13564825Y-14656650D02*
X13583872Y-14666174D01*
X13660063Y-14866174D02*
X13669587Y-14856650D01*
X13669587Y-14856650D02*
X13688634Y-14828079D01*
X13688634Y-14828079D02*
X13698158Y-14809031D01*
X13698158Y-14809031D02*
X13707682Y-14780460D01*
X13707682Y-14780460D02*
X13717206Y-14732841D01*
X13717206Y-14732841D02*
X13717206Y-14694746D01*
X13717206Y-14694746D02*
X13707682Y-14647127D01*
X13707682Y-14647127D02*
X13698158Y-14618555D01*
X13698158Y-14618555D02*
X13688634Y-14599508D01*
X13688634Y-14599508D02*
X13669587Y-14570936D01*
X13669587Y-14570936D02*
X13660063Y-14561412D01*
D10*
X8870356Y-14997856D02*
X8870356Y-14927144D01*
X8799644Y-14927144D01*
X8799644Y-14997856D01*
X8870356Y-14997856D01*
D11*
X9250539Y-15053984D02*
X9136253Y-15053984D01*
X9193396Y-15053984D02*
X9193396Y-14853984D01*
X9193396Y-14853984D02*
X9174348Y-14882555D01*
X9174348Y-14882555D02*
X9155301Y-14901603D01*
X9155301Y-14901603D02*
X9136253Y-14911127D01*
X9336253Y-15034936D02*
X9345777Y-15044460D01*
X9345777Y-15044460D02*
X9336253Y-15053984D01*
X9336253Y-15053984D02*
X9326729Y-15044460D01*
X9326729Y-15044460D02*
X9336253Y-15034936D01*
X9336253Y-15034936D02*
X9336253Y-15053984D01*
X9469586Y-14853984D02*
X9488634Y-14853984D01*
X9488634Y-14853984D02*
X9507682Y-14863508D01*
X9507682Y-14863508D02*
X9517205Y-14873031D01*
X9517205Y-14873031D02*
X9526729Y-14892079D01*
X9526729Y-14892079D02*
X9536253Y-14930174D01*
X9536253Y-14930174D02*
X9536253Y-14977793D01*
X9536253Y-14977793D02*
X9526729Y-15015888D01*
X9526729Y-15015888D02*
X9517205Y-15034936D01*
X9517205Y-15034936D02*
X9507682Y-15044460D01*
X9507682Y-15044460D02*
X9488634Y-15053984D01*
X9488634Y-15053984D02*
X9469586Y-15053984D01*
X9469586Y-15053984D02*
X9450539Y-15044460D01*
X9450539Y-15044460D02*
X9441015Y-15034936D01*
X9441015Y-15034936D02*
X9431491Y-15015888D01*
X9431491Y-15015888D02*
X9421967Y-14977793D01*
X9421967Y-14977793D02*
X9421967Y-14930174D01*
X9421967Y-14930174D02*
X9431491Y-14892079D01*
X9431491Y-14892079D02*
X9441015Y-14873031D01*
X9441015Y-14873031D02*
X9450539Y-14863508D01*
X9450539Y-14863508D02*
X9469586Y-14853984D01*
X9660063Y-14853984D02*
X9679110Y-14853984D01*
X9679110Y-14853984D02*
X9698158Y-14863508D01*
X9698158Y-14863508D02*
X9707682Y-14873031D01*
X9707682Y-14873031D02*
X9717205Y-14892079D01*
X9717205Y-14892079D02*
X9726729Y-14930174D01*
X9726729Y-14930174D02*
X9726729Y-14977793D01*
X9726729Y-14977793D02*
X9717205Y-15015888D01*
X9717205Y-15015888D02*
X9707682Y-15034936D01*
X9707682Y-15034936D02*
X9698158Y-15044460D01*
X9698158Y-15044460D02*
X9679110Y-15053984D01*
X9679110Y-15053984D02*
X9660063Y-15053984D01*
X9660063Y-15053984D02*
X9641015Y-15044460D01*
X9641015Y-15044460D02*
X9631491Y-15034936D01*
X9631491Y-15034936D02*
X9621967Y-15015888D01*
X9621967Y-15015888D02*
X9612444Y-14977793D01*
X9612444Y-14977793D02*
X9612444Y-14930174D01*
X9612444Y-14930174D02*
X9621967Y-14892079D01*
X9621967Y-14892079D02*
X9631491Y-14873031D01*
X9631491Y-14873031D02*
X9641015Y-14863508D01*
X9641015Y-14863508D02*
X9660063Y-14853984D01*
X9850539Y-14853984D02*
X9869586Y-14853984D01*
X9869586Y-14853984D02*
X9888634Y-14863508D01*
X9888634Y-14863508D02*
X9898158Y-14873031D01*
X9898158Y-14873031D02*
X9907682Y-14892079D01*
X9907682Y-14892079D02*
X9917205Y-14930174D01*
X9917205Y-14930174D02*
X9917205Y-14977793D01*
X9917205Y-14977793D02*
X9907682Y-15015888D01*
X9907682Y-15015888D02*
X9898158Y-15034936D01*
X9898158Y-15034936D02*
X9888634Y-15044460D01*
X9888634Y-15044460D02*
X9869586Y-15053984D01*
X9869586Y-15053984D02*
X9850539Y-15053984D01*
X9850539Y-15053984D02*
X9831491Y-15044460D01*
X9831491Y-15044460D02*
X9821967Y-15034936D01*
X9821967Y-15034936D02*
X9812444Y-15015888D01*
X9812444Y-15015888D02*
X9802920Y-14977793D01*
X9802920Y-14977793D02*
X9802920Y-14930174D01*
X9802920Y-14930174D02*
X9812444Y-14892079D01*
X9812444Y-14892079D02*
X9821967Y-14873031D01*
X9821967Y-14873031D02*
X9831491Y-14863508D01*
X9831491Y-14863508D02*
X9850539Y-14853984D01*
X10002920Y-15053984D02*
X10002920Y-14920650D01*
X10002920Y-14939698D02*
X10012444Y-14930174D01*
X10012444Y-14930174D02*
X10031491Y-14920650D01*
X10031491Y-14920650D02*
X10060063Y-14920650D01*
X10060063Y-14920650D02*
X10079110Y-14930174D01*
X10079110Y-14930174D02*
X10088634Y-14949222D01*
X10088634Y-14949222D02*
X10088634Y-15053984D01*
X10088634Y-14949222D02*
X10098158Y-14930174D01*
X10098158Y-14930174D02*
X10117205Y-14920650D01*
X10117205Y-14920650D02*
X10145777Y-14920650D01*
X10145777Y-14920650D02*
X10164825Y-14930174D01*
X10164825Y-14930174D02*
X10174348Y-14949222D01*
X10174348Y-14949222D02*
X10174348Y-15053984D01*
X10269586Y-15053984D02*
X10269586Y-14920650D01*
X10269586Y-14939698D02*
X10279110Y-14930174D01*
X10279110Y-14930174D02*
X10298158Y-14920650D01*
X10298158Y-14920650D02*
X10326729Y-14920650D01*
X10326729Y-14920650D02*
X10345777Y-14930174D01*
X10345777Y-14930174D02*
X10355301Y-14949222D01*
X10355301Y-14949222D02*
X10355301Y-15053984D01*
X10355301Y-14949222D02*
X10364825Y-14930174D01*
X10364825Y-14930174D02*
X10383872Y-14920650D01*
X10383872Y-14920650D02*
X10412444Y-14920650D01*
X10412444Y-14920650D02*
X10431491Y-14930174D01*
X10431491Y-14930174D02*
X10441015Y-14949222D01*
X10441015Y-14949222D02*
X10441015Y-15053984D01*
X10831491Y-14844460D02*
X10660063Y-15101603D01*
X11088634Y-14853984D02*
X11107682Y-14853984D01*
X11107682Y-14853984D02*
X11126729Y-14863508D01*
X11126729Y-14863508D02*
X11136253Y-14873031D01*
X11136253Y-14873031D02*
X11145777Y-14892079D01*
X11145777Y-14892079D02*
X11155301Y-14930174D01*
X11155301Y-14930174D02*
X11155301Y-14977793D01*
X11155301Y-14977793D02*
X11145777Y-15015888D01*
X11145777Y-15015888D02*
X11136253Y-15034936D01*
X11136253Y-15034936D02*
X11126729Y-15044460D01*
X11126729Y-15044460D02*
X11107682Y-15053984D01*
X11107682Y-15053984D02*
X11088634Y-15053984D01*
X11088634Y-15053984D02*
X11069587Y-15044460D01*
X11069587Y-15044460D02*
X11060063Y-15034936D01*
X11060063Y-15034936D02*
X11050539Y-15015888D01*
X11050539Y-15015888D02*
X11041015Y-14977793D01*
X11041015Y-14977793D02*
X11041015Y-14930174D01*
X11041015Y-14930174D02*
X11050539Y-14892079D01*
X11050539Y-14892079D02*
X11060063Y-14873031D01*
X11060063Y-14873031D02*
X11069587Y-14863508D01*
X11069587Y-14863508D02*
X11088634Y-14853984D01*
X11241015Y-15034936D02*
X11250539Y-15044460D01*
X11250539Y-15044460D02*
X11241015Y-15053984D01*
X11241015Y-15053984D02*
X11231491Y-15044460D01*
X11231491Y-15044460D02*
X11241015Y-15034936D01*
X11241015Y-15034936D02*
X11241015Y-15053984D01*
X11374348Y-14853984D02*
X11393396Y-14853984D01*
X11393396Y-14853984D02*
X11412444Y-14863508D01*
X11412444Y-14863508D02*
X11421967Y-14873031D01*
X11421967Y-14873031D02*
X11431491Y-14892079D01*
X11431491Y-14892079D02*
X11441015Y-14930174D01*
X11441015Y-14930174D02*
X11441015Y-14977793D01*
X11441015Y-14977793D02*
X11431491Y-15015888D01*
X11431491Y-15015888D02*
X11421967Y-15034936D01*
X11421967Y-15034936D02*
X11412444Y-15044460D01*
X11412444Y-15044460D02*
X11393396Y-15053984D01*
X11393396Y-15053984D02*
X11374348Y-15053984D01*
X11374348Y-15053984D02*
X11355301Y-15044460D01*
X11355301Y-15044460D02*
X11345777Y-15034936D01*
X11345777Y-15034936D02*
X11336253Y-15015888D01*
X11336253Y-15015888D02*
X11326729Y-14977793D01*
X11326729Y-14977793D02*
X11326729Y-14930174D01*
X11326729Y-14930174D02*
X11336253Y-14892079D01*
X11336253Y-14892079D02*
X11345777Y-14873031D01*
X11345777Y-14873031D02*
X11355301Y-14863508D01*
X11355301Y-14863508D02*
X11374348Y-14853984D01*
X11507682Y-14853984D02*
X11631491Y-14853984D01*
X11631491Y-14853984D02*
X11564825Y-14930174D01*
X11564825Y-14930174D02*
X11593396Y-14930174D01*
X11593396Y-14930174D02*
X11612444Y-14939698D01*
X11612444Y-14939698D02*
X11621967Y-14949222D01*
X11621967Y-14949222D02*
X11631491Y-14968269D01*
X11631491Y-14968269D02*
X11631491Y-15015888D01*
X11631491Y-15015888D02*
X11621967Y-15034936D01*
X11621967Y-15034936D02*
X11612444Y-15044460D01*
X11612444Y-15044460D02*
X11593396Y-15053984D01*
X11593396Y-15053984D02*
X11536253Y-15053984D01*
X11536253Y-15053984D02*
X11517206Y-15044460D01*
X11517206Y-15044460D02*
X11507682Y-15034936D01*
X11726729Y-15053984D02*
X11764825Y-15053984D01*
X11764825Y-15053984D02*
X11783872Y-15044460D01*
X11783872Y-15044460D02*
X11793396Y-15034936D01*
X11793396Y-15034936D02*
X11812444Y-15006365D01*
X11812444Y-15006365D02*
X11821967Y-14968269D01*
X11821967Y-14968269D02*
X11821967Y-14892079D01*
X11821967Y-14892079D02*
X11812444Y-14873031D01*
X11812444Y-14873031D02*
X11802920Y-14863508D01*
X11802920Y-14863508D02*
X11783872Y-14853984D01*
X11783872Y-14853984D02*
X11745777Y-14853984D01*
X11745777Y-14853984D02*
X11726729Y-14863508D01*
X11726729Y-14863508D02*
X11717206Y-14873031D01*
X11717206Y-14873031D02*
X11707682Y-14892079D01*
X11707682Y-14892079D02*
X11707682Y-14939698D01*
X11707682Y-14939698D02*
X11717206Y-14958746D01*
X11717206Y-14958746D02*
X11726729Y-14968269D01*
X11726729Y-14968269D02*
X11745777Y-14977793D01*
X11745777Y-14977793D02*
X11783872Y-14977793D01*
X11783872Y-14977793D02*
X11802920Y-14968269D01*
X11802920Y-14968269D02*
X11812444Y-14958746D01*
X11812444Y-14958746D02*
X11821967Y-14939698D01*
X11993396Y-14920650D02*
X11993396Y-15053984D01*
X11945777Y-14844460D02*
X11898158Y-14987317D01*
X11898158Y-14987317D02*
X12021967Y-14987317D01*
X12088634Y-14853984D02*
X12088634Y-14892079D01*
X12164825Y-14853984D02*
X12164825Y-14892079D01*
X12460063Y-15130174D02*
X12450539Y-15120650D01*
X12450539Y-15120650D02*
X12431491Y-15092079D01*
X12431491Y-15092079D02*
X12421968Y-15073031D01*
X12421968Y-15073031D02*
X12412444Y-15044460D01*
X12412444Y-15044460D02*
X12402920Y-14996841D01*
X12402920Y-14996841D02*
X12402920Y-14958746D01*
X12402920Y-14958746D02*
X12412444Y-14911127D01*
X12412444Y-14911127D02*
X12421968Y-14882555D01*
X12421968Y-14882555D02*
X12431491Y-14863508D01*
X12431491Y-14863508D02*
X12450539Y-14834936D01*
X12450539Y-14834936D02*
X12460063Y-14825412D01*
X12517206Y-14853984D02*
X12641015Y-14853984D01*
X12641015Y-14853984D02*
X12574348Y-14930174D01*
X12574348Y-14930174D02*
X12602920Y-14930174D01*
X12602920Y-14930174D02*
X12621968Y-14939698D01*
X12621968Y-14939698D02*
X12631491Y-14949222D01*
X12631491Y-14949222D02*
X12641015Y-14968269D01*
X12641015Y-14968269D02*
X12641015Y-15015888D01*
X12641015Y-15015888D02*
X12631491Y-15034936D01*
X12631491Y-15034936D02*
X12621968Y-15044460D01*
X12621968Y-15044460D02*
X12602920Y-15053984D01*
X12602920Y-15053984D02*
X12545777Y-15053984D01*
X12545777Y-15053984D02*
X12526729Y-15044460D01*
X12526729Y-15044460D02*
X12517206Y-15034936D01*
X12764825Y-14853984D02*
X12783872Y-14853984D01*
X12783872Y-14853984D02*
X12802920Y-14863508D01*
X12802920Y-14863508D02*
X12812444Y-14873031D01*
X12812444Y-14873031D02*
X12821968Y-14892079D01*
X12821968Y-14892079D02*
X12831491Y-14930174D01*
X12831491Y-14930174D02*
X12831491Y-14977793D01*
X12831491Y-14977793D02*
X12821968Y-15015888D01*
X12821968Y-15015888D02*
X12812444Y-15034936D01*
X12812444Y-15034936D02*
X12802920Y-15044460D01*
X12802920Y-15044460D02*
X12783872Y-15053984D01*
X12783872Y-15053984D02*
X12764825Y-15053984D01*
X12764825Y-15053984D02*
X12745777Y-15044460D01*
X12745777Y-15044460D02*
X12736253Y-15034936D01*
X12736253Y-15034936D02*
X12726729Y-15015888D01*
X12726729Y-15015888D02*
X12717206Y-14977793D01*
X12717206Y-14977793D02*
X12717206Y-14930174D01*
X12717206Y-14930174D02*
X12726729Y-14892079D01*
X12726729Y-14892079D02*
X12736253Y-14873031D01*
X12736253Y-14873031D02*
X12745777Y-14863508D01*
X12745777Y-14863508D02*
X12764825Y-14853984D01*
X13069587Y-15053984D02*
X13069587Y-14853984D01*
X13155301Y-15053984D02*
X13155301Y-14949222D01*
X13155301Y-14949222D02*
X13145777Y-14930174D01*
X13145777Y-14930174D02*
X13126730Y-14920650D01*
X13126730Y-14920650D02*
X13098158Y-14920650D01*
X13098158Y-14920650D02*
X13079110Y-14930174D01*
X13079110Y-14930174D02*
X13069587Y-14939698D01*
X13279110Y-15053984D02*
X13260063Y-15044460D01*
X13260063Y-15044460D02*
X13250539Y-15034936D01*
X13250539Y-15034936D02*
X13241015Y-15015888D01*
X13241015Y-15015888D02*
X13241015Y-14958746D01*
X13241015Y-14958746D02*
X13250539Y-14939698D01*
X13250539Y-14939698D02*
X13260063Y-14930174D01*
X13260063Y-14930174D02*
X13279110Y-14920650D01*
X13279110Y-14920650D02*
X13307682Y-14920650D01*
X13307682Y-14920650D02*
X13326730Y-14930174D01*
X13326730Y-14930174D02*
X13336253Y-14939698D01*
X13336253Y-14939698D02*
X13345777Y-14958746D01*
X13345777Y-14958746D02*
X13345777Y-15015888D01*
X13345777Y-15015888D02*
X13336253Y-15034936D01*
X13336253Y-15034936D02*
X13326730Y-15044460D01*
X13326730Y-15044460D02*
X13307682Y-15053984D01*
X13307682Y-15053984D02*
X13279110Y-15053984D01*
X13460063Y-15053984D02*
X13441015Y-15044460D01*
X13441015Y-15044460D02*
X13431491Y-15025412D01*
X13431491Y-15025412D02*
X13431491Y-14853984D01*
X13612444Y-15044460D02*
X13593396Y-15053984D01*
X13593396Y-15053984D02*
X13555301Y-15053984D01*
X13555301Y-15053984D02*
X13536253Y-15044460D01*
X13536253Y-15044460D02*
X13526730Y-15025412D01*
X13526730Y-15025412D02*
X13526730Y-14949222D01*
X13526730Y-14949222D02*
X13536253Y-14930174D01*
X13536253Y-14930174D02*
X13555301Y-14920650D01*
X13555301Y-14920650D02*
X13593396Y-14920650D01*
X13593396Y-14920650D02*
X13612444Y-14930174D01*
X13612444Y-14930174D02*
X13621968Y-14949222D01*
X13621968Y-14949222D02*
X13621968Y-14968269D01*
X13621968Y-14968269D02*
X13526730Y-14987317D01*
X13698158Y-15044460D02*
X13717206Y-15053984D01*
X13717206Y-15053984D02*
X13755301Y-15053984D01*
X13755301Y-15053984D02*
X13774349Y-15044460D01*
X13774349Y-15044460D02*
X13783872Y-15025412D01*
X13783872Y-15025412D02*
X13783872Y-15015888D01*
X13783872Y-15015888D02*
X13774349Y-14996841D01*
X13774349Y-14996841D02*
X13755301Y-14987317D01*
X13755301Y-14987317D02*
X13726730Y-14987317D01*
X13726730Y-14987317D02*
X13707682Y-14977793D01*
X13707682Y-14977793D02*
X13698158Y-14958746D01*
X13698158Y-14958746D02*
X13698158Y-14949222D01*
X13698158Y-14949222D02*
X13707682Y-14930174D01*
X13707682Y-14930174D02*
X13726730Y-14920650D01*
X13726730Y-14920650D02*
X13755301Y-14920650D01*
X13755301Y-14920650D02*
X13774349Y-14930174D01*
X13850539Y-15130174D02*
X13860063Y-15120650D01*
X13860063Y-15120650D02*
X13879111Y-15092079D01*
X13879111Y-15092079D02*
X13888634Y-15073031D01*
X13888634Y-15073031D02*
X13898158Y-15044460D01*
X13898158Y-15044460D02*
X13907682Y-14996841D01*
X13907682Y-14996841D02*
X13907682Y-14958746D01*
X13907682Y-14958746D02*
X13898158Y-14911127D01*
X13898158Y-14911127D02*
X13888634Y-14882555D01*
X13888634Y-14882555D02*
X13879111Y-14863508D01*
X13879111Y-14863508D02*
X13860063Y-14834936D01*
X13860063Y-14834936D02*
X13850539Y-14825412D01*
D12*
X8825000Y-15286500D02*
X8885000Y-15226500D01*
X8825000Y-15166500D01*
X8765000Y-15226500D01*
X8825000Y-15286500D01*
D11*
X9250539Y-15317984D02*
X9136253Y-15317984D01*
X9193396Y-15317984D02*
X9193396Y-15117984D01*
X9193396Y-15117984D02*
X9174348Y-15146555D01*
X9174348Y-15146555D02*
X9155301Y-15165603D01*
X9155301Y-15165603D02*
X9136253Y-15175127D01*
X9336253Y-15298936D02*
X9345777Y-15308460D01*
X9345777Y-15308460D02*
X9336253Y-15317984D01*
X9336253Y-15317984D02*
X9326729Y-15308460D01*
X9326729Y-15308460D02*
X9336253Y-15298936D01*
X9336253Y-15298936D02*
X9336253Y-15317984D01*
X9421967Y-15137031D02*
X9431491Y-15127508D01*
X9431491Y-15127508D02*
X9450539Y-15117984D01*
X9450539Y-15117984D02*
X9498158Y-15117984D01*
X9498158Y-15117984D02*
X9517205Y-15127508D01*
X9517205Y-15127508D02*
X9526729Y-15137031D01*
X9526729Y-15137031D02*
X9536253Y-15156079D01*
X9536253Y-15156079D02*
X9536253Y-15175127D01*
X9536253Y-15175127D02*
X9526729Y-15203698D01*
X9526729Y-15203698D02*
X9412444Y-15317984D01*
X9412444Y-15317984D02*
X9536253Y-15317984D01*
X9660063Y-15117984D02*
X9679110Y-15117984D01*
X9679110Y-15117984D02*
X9698158Y-15127508D01*
X9698158Y-15127508D02*
X9707682Y-15137031D01*
X9707682Y-15137031D02*
X9717205Y-15156079D01*
X9717205Y-15156079D02*
X9726729Y-15194174D01*
X9726729Y-15194174D02*
X9726729Y-15241793D01*
X9726729Y-15241793D02*
X9717205Y-15279888D01*
X9717205Y-15279888D02*
X9707682Y-15298936D01*
X9707682Y-15298936D02*
X9698158Y-15308460D01*
X9698158Y-15308460D02*
X9679110Y-15317984D01*
X9679110Y-15317984D02*
X9660063Y-15317984D01*
X9660063Y-15317984D02*
X9641015Y-15308460D01*
X9641015Y-15308460D02*
X9631491Y-15298936D01*
X9631491Y-15298936D02*
X9621967Y-15279888D01*
X9621967Y-15279888D02*
X9612444Y-15241793D01*
X9612444Y-15241793D02*
X9612444Y-15194174D01*
X9612444Y-15194174D02*
X9621967Y-15156079D01*
X9621967Y-15156079D02*
X9631491Y-15137031D01*
X9631491Y-15137031D02*
X9641015Y-15127508D01*
X9641015Y-15127508D02*
X9660063Y-15117984D01*
X9850539Y-15117984D02*
X9869586Y-15117984D01*
X9869586Y-15117984D02*
X9888634Y-15127508D01*
X9888634Y-15127508D02*
X9898158Y-15137031D01*
X9898158Y-15137031D02*
X9907682Y-15156079D01*
X9907682Y-15156079D02*
X9917205Y-15194174D01*
X9917205Y-15194174D02*
X9917205Y-15241793D01*
X9917205Y-15241793D02*
X9907682Y-15279888D01*
X9907682Y-15279888D02*
X9898158Y-15298936D01*
X9898158Y-15298936D02*
X9888634Y-15308460D01*
X9888634Y-15308460D02*
X9869586Y-15317984D01*
X9869586Y-15317984D02*
X9850539Y-15317984D01*
X9850539Y-15317984D02*
X9831491Y-15308460D01*
X9831491Y-15308460D02*
X9821967Y-15298936D01*
X9821967Y-15298936D02*
X9812444Y-15279888D01*
X9812444Y-15279888D02*
X9802920Y-15241793D01*
X9802920Y-15241793D02*
X9802920Y-15194174D01*
X9802920Y-15194174D02*
X9812444Y-15156079D01*
X9812444Y-15156079D02*
X9821967Y-15137031D01*
X9821967Y-15137031D02*
X9831491Y-15127508D01*
X9831491Y-15127508D02*
X9850539Y-15117984D01*
X10002920Y-15317984D02*
X10002920Y-15184650D01*
X10002920Y-15203698D02*
X10012444Y-15194174D01*
X10012444Y-15194174D02*
X10031491Y-15184650D01*
X10031491Y-15184650D02*
X10060063Y-15184650D01*
X10060063Y-15184650D02*
X10079110Y-15194174D01*
X10079110Y-15194174D02*
X10088634Y-15213222D01*
X10088634Y-15213222D02*
X10088634Y-15317984D01*
X10088634Y-15213222D02*
X10098158Y-15194174D01*
X10098158Y-15194174D02*
X10117205Y-15184650D01*
X10117205Y-15184650D02*
X10145777Y-15184650D01*
X10145777Y-15184650D02*
X10164825Y-15194174D01*
X10164825Y-15194174D02*
X10174348Y-15213222D01*
X10174348Y-15213222D02*
X10174348Y-15317984D01*
X10269586Y-15317984D02*
X10269586Y-15184650D01*
X10269586Y-15203698D02*
X10279110Y-15194174D01*
X10279110Y-15194174D02*
X10298158Y-15184650D01*
X10298158Y-15184650D02*
X10326729Y-15184650D01*
X10326729Y-15184650D02*
X10345777Y-15194174D01*
X10345777Y-15194174D02*
X10355301Y-15213222D01*
X10355301Y-15213222D02*
X10355301Y-15317984D01*
X10355301Y-15213222D02*
X10364825Y-15194174D01*
X10364825Y-15194174D02*
X10383872Y-15184650D01*
X10383872Y-15184650D02*
X10412444Y-15184650D01*
X10412444Y-15184650D02*
X10431491Y-15194174D01*
X10431491Y-15194174D02*
X10441015Y-15213222D01*
X10441015Y-15213222D02*
X10441015Y-15317984D01*
X10831491Y-15108460D02*
X10660063Y-15365603D01*
X11088634Y-15117984D02*
X11107682Y-15117984D01*
X11107682Y-15117984D02*
X11126729Y-15127508D01*
X11126729Y-15127508D02*
X11136253Y-15137031D01*
X11136253Y-15137031D02*
X11145777Y-15156079D01*
X11145777Y-15156079D02*
X11155301Y-15194174D01*
X11155301Y-15194174D02*
X11155301Y-15241793D01*
X11155301Y-15241793D02*
X11145777Y-15279888D01*
X11145777Y-15279888D02*
X11136253Y-15298936D01*
X11136253Y-15298936D02*
X11126729Y-15308460D01*
X11126729Y-15308460D02*
X11107682Y-15317984D01*
X11107682Y-15317984D02*
X11088634Y-15317984D01*
X11088634Y-15317984D02*
X11069587Y-15308460D01*
X11069587Y-15308460D02*
X11060063Y-15298936D01*
X11060063Y-15298936D02*
X11050539Y-15279888D01*
X11050539Y-15279888D02*
X11041015Y-15241793D01*
X11041015Y-15241793D02*
X11041015Y-15194174D01*
X11041015Y-15194174D02*
X11050539Y-15156079D01*
X11050539Y-15156079D02*
X11060063Y-15137031D01*
X11060063Y-15137031D02*
X11069587Y-15127508D01*
X11069587Y-15127508D02*
X11088634Y-15117984D01*
X11241015Y-15298936D02*
X11250539Y-15308460D01*
X11250539Y-15308460D02*
X11241015Y-15317984D01*
X11241015Y-15317984D02*
X11231491Y-15308460D01*
X11231491Y-15308460D02*
X11241015Y-15298936D01*
X11241015Y-15298936D02*
X11241015Y-15317984D01*
X11374348Y-15117984D02*
X11393396Y-15117984D01*
X11393396Y-15117984D02*
X11412444Y-15127508D01*
X11412444Y-15127508D02*
X11421967Y-15137031D01*
X11421967Y-15137031D02*
X11431491Y-15156079D01*
X11431491Y-15156079D02*
X11441015Y-15194174D01*
X11441015Y-15194174D02*
X11441015Y-15241793D01*
X11441015Y-15241793D02*
X11431491Y-15279888D01*
X11431491Y-15279888D02*
X11421967Y-15298936D01*
X11421967Y-15298936D02*
X11412444Y-15308460D01*
X11412444Y-15308460D02*
X11393396Y-15317984D01*
X11393396Y-15317984D02*
X11374348Y-15317984D01*
X11374348Y-15317984D02*
X11355301Y-15308460D01*
X11355301Y-15308460D02*
X11345777Y-15298936D01*
X11345777Y-15298936D02*
X11336253Y-15279888D01*
X11336253Y-15279888D02*
X11326729Y-15241793D01*
X11326729Y-15241793D02*
X11326729Y-15194174D01*
X11326729Y-15194174D02*
X11336253Y-15156079D01*
X11336253Y-15156079D02*
X11345777Y-15137031D01*
X11345777Y-15137031D02*
X11355301Y-15127508D01*
X11355301Y-15127508D02*
X11374348Y-15117984D01*
X11612444Y-15184650D02*
X11612444Y-15317984D01*
X11564825Y-15108460D02*
X11517206Y-15251317D01*
X11517206Y-15251317D02*
X11641015Y-15251317D01*
X11698158Y-15117984D02*
X11831491Y-15117984D01*
X11831491Y-15117984D02*
X11745777Y-15317984D01*
X11898158Y-15137031D02*
X11907682Y-15127508D01*
X11907682Y-15127508D02*
X11926729Y-15117984D01*
X11926729Y-15117984D02*
X11974348Y-15117984D01*
X11974348Y-15117984D02*
X11993396Y-15127508D01*
X11993396Y-15127508D02*
X12002920Y-15137031D01*
X12002920Y-15137031D02*
X12012444Y-15156079D01*
X12012444Y-15156079D02*
X12012444Y-15175127D01*
X12012444Y-15175127D02*
X12002920Y-15203698D01*
X12002920Y-15203698D02*
X11888634Y-15317984D01*
X11888634Y-15317984D02*
X12012444Y-15317984D01*
X12088634Y-15117984D02*
X12088634Y-15156079D01*
X12164825Y-15117984D02*
X12164825Y-15156079D01*
X12460063Y-15394174D02*
X12450539Y-15384650D01*
X12450539Y-15384650D02*
X12431491Y-15356079D01*
X12431491Y-15356079D02*
X12421968Y-15337031D01*
X12421968Y-15337031D02*
X12412444Y-15308460D01*
X12412444Y-15308460D02*
X12402920Y-15260841D01*
X12402920Y-15260841D02*
X12402920Y-15222746D01*
X12402920Y-15222746D02*
X12412444Y-15175127D01*
X12412444Y-15175127D02*
X12421968Y-15146555D01*
X12421968Y-15146555D02*
X12431491Y-15127508D01*
X12431491Y-15127508D02*
X12450539Y-15098936D01*
X12450539Y-15098936D02*
X12460063Y-15089412D01*
X12517206Y-15117984D02*
X12641015Y-15117984D01*
X12641015Y-15117984D02*
X12574348Y-15194174D01*
X12574348Y-15194174D02*
X12602920Y-15194174D01*
X12602920Y-15194174D02*
X12621968Y-15203698D01*
X12621968Y-15203698D02*
X12631491Y-15213222D01*
X12631491Y-15213222D02*
X12641015Y-15232269D01*
X12641015Y-15232269D02*
X12641015Y-15279888D01*
X12641015Y-15279888D02*
X12631491Y-15298936D01*
X12631491Y-15298936D02*
X12621968Y-15308460D01*
X12621968Y-15308460D02*
X12602920Y-15317984D01*
X12602920Y-15317984D02*
X12545777Y-15317984D01*
X12545777Y-15317984D02*
X12526729Y-15308460D01*
X12526729Y-15308460D02*
X12517206Y-15298936D01*
X12879110Y-15317984D02*
X12879110Y-15117984D01*
X12964825Y-15317984D02*
X12964825Y-15213222D01*
X12964825Y-15213222D02*
X12955301Y-15194174D01*
X12955301Y-15194174D02*
X12936253Y-15184650D01*
X12936253Y-15184650D02*
X12907682Y-15184650D01*
X12907682Y-15184650D02*
X12888634Y-15194174D01*
X12888634Y-15194174D02*
X12879110Y-15203698D01*
X13088634Y-15317984D02*
X13069587Y-15308460D01*
X13069587Y-15308460D02*
X13060063Y-15298936D01*
X13060063Y-15298936D02*
X13050539Y-15279888D01*
X13050539Y-15279888D02*
X13050539Y-15222746D01*
X13050539Y-15222746D02*
X13060063Y-15203698D01*
X13060063Y-15203698D02*
X13069587Y-15194174D01*
X13069587Y-15194174D02*
X13088634Y-15184650D01*
X13088634Y-15184650D02*
X13117206Y-15184650D01*
X13117206Y-15184650D02*
X13136253Y-15194174D01*
X13136253Y-15194174D02*
X13145777Y-15203698D01*
X13145777Y-15203698D02*
X13155301Y-15222746D01*
X13155301Y-15222746D02*
X13155301Y-15279888D01*
X13155301Y-15279888D02*
X13145777Y-15298936D01*
X13145777Y-15298936D02*
X13136253Y-15308460D01*
X13136253Y-15308460D02*
X13117206Y-15317984D01*
X13117206Y-15317984D02*
X13088634Y-15317984D01*
X13269587Y-15317984D02*
X13250539Y-15308460D01*
X13250539Y-15308460D02*
X13241015Y-15289412D01*
X13241015Y-15289412D02*
X13241015Y-15117984D01*
X13421968Y-15308460D02*
X13402920Y-15317984D01*
X13402920Y-15317984D02*
X13364825Y-15317984D01*
X13364825Y-15317984D02*
X13345777Y-15308460D01*
X13345777Y-15308460D02*
X13336253Y-15289412D01*
X13336253Y-15289412D02*
X13336253Y-15213222D01*
X13336253Y-15213222D02*
X13345777Y-15194174D01*
X13345777Y-15194174D02*
X13364825Y-15184650D01*
X13364825Y-15184650D02*
X13402920Y-15184650D01*
X13402920Y-15184650D02*
X13421968Y-15194174D01*
X13421968Y-15194174D02*
X13431491Y-15213222D01*
X13431491Y-15213222D02*
X13431491Y-15232269D01*
X13431491Y-15232269D02*
X13336253Y-15251317D01*
X13507682Y-15308460D02*
X13526730Y-15317984D01*
X13526730Y-15317984D02*
X13564825Y-15317984D01*
X13564825Y-15317984D02*
X13583872Y-15308460D01*
X13583872Y-15308460D02*
X13593396Y-15289412D01*
X13593396Y-15289412D02*
X13593396Y-15279888D01*
X13593396Y-15279888D02*
X13583872Y-15260841D01*
X13583872Y-15260841D02*
X13564825Y-15251317D01*
X13564825Y-15251317D02*
X13536253Y-15251317D01*
X13536253Y-15251317D02*
X13517206Y-15241793D01*
X13517206Y-15241793D02*
X13507682Y-15222746D01*
X13507682Y-15222746D02*
X13507682Y-15213222D01*
X13507682Y-15213222D02*
X13517206Y-15194174D01*
X13517206Y-15194174D02*
X13536253Y-15184650D01*
X13536253Y-15184650D02*
X13564825Y-15184650D01*
X13564825Y-15184650D02*
X13583872Y-15194174D01*
X13660063Y-15394174D02*
X13669587Y-15384650D01*
X13669587Y-15384650D02*
X13688634Y-15356079D01*
X13688634Y-15356079D02*
X13698158Y-15337031D01*
X13698158Y-15337031D02*
X13707682Y-15308460D01*
X13707682Y-15308460D02*
X13717206Y-15260841D01*
X13717206Y-15260841D02*
X13717206Y-15222746D01*
X13717206Y-15222746D02*
X13707682Y-15175127D01*
X13707682Y-15175127D02*
X13698158Y-15146555D01*
X13698158Y-15146555D02*
X13688634Y-15127508D01*
X13688634Y-15127508D02*
X13669587Y-15098936D01*
X13669587Y-15098936D02*
X13660063Y-15089412D01*
M02*
