M48
; DRILL file {KiCad 8.0.3} date 2024-07-30T18:50:14+0200
; FORMAT={-:-/ absolute / metric / decimal}
; #@! TF.CreationDate,2024-07-30T18:50:14+02:00
; #@! TF.GenerationSoftware,Kicad,Pcbnew,8.0.3
; #@! TF.FileFunction,Plated,1,2,PTH
FMAT,2
METRIC
; #@! TA.AperFunction,Plated,PTH,ViaDrill
T1C0.300
; #@! TA.AperFunction,Plated,PTH,ViaDrill
T2C0.400
; #@! TA.AperFunction,Plated,PTH,ComponentDrill
T3C0.800
; #@! TA.AperFunction,Plated,PTH,ComponentDrill
T4C1.000
; #@! TA.AperFunction,Plated,PTH,ComponentDrill
T5C1.200
%
G90
G05
T1
X92.71Y-83.185
X96.012Y-87.503
X96.52Y-120.523
X100.076Y-107.315
X100.584Y-111.125
X100.584Y-121.539
X100.838Y-84.201
X103.124Y-88.773
X103.632Y-122.504
X107.823Y-100.33
X109.347Y-82.931
X110.49Y-103.251
X111.252Y-89.027
X113.03Y-92.837
X113.432Y-113.008
X113.538Y-106.553
X114.3Y-103.251
X117.094Y-84.201
X117.094Y-100.584
X120.015Y-88.392
X121.92Y-132.08
X122.372Y-112.522
X124.46Y-132.08
X124.714Y-107.061
X125.814Y-110.617
X125.984Y-118.745
X126.111Y-119.73
X127.0Y-132.08
X127.762Y-93.345
X128.27Y-118.237
X129.032Y-125.349
X130.302Y-114.427
X132.842Y-114.427
X132.842Y-122.047
X132.842Y-125.349
X135.382Y-114.427
X137.16Y-119.041
X137.668Y-104.775
X137.668Y-113.665
X137.668Y-116.205
X137.922Y-123.317
X139.446Y-116.205
X139.954Y-101.473
X142.494Y-102.997
X143.256Y-89.281
X143.381Y-114.427
X144.018Y-109.601
X144.145Y-121.92
X144.145Y-126.365
X144.272Y-106.553
X144.526Y-102.235
X145.034Y-89.281
X146.304Y-101.219
X147.828Y-101.219
X151.257Y-113.03
X151.257Y-117.475
X151.384Y-109.601
X152.908Y-102.997
X152.908Y-119.091
X153.67Y-113.03
X153.67Y-117.475
X154.97Y-123.19
X157.48Y-113.03
X157.48Y-117.475
X158.242Y-117.983
X158.496Y-103.505
X159.766Y-100.457
X161.036Y-89.281
X161.29Y-112.903
X161.515Y-106.567
X162.179Y-102.362
X162.422Y-106.415
X162.814Y-89.281
X167.64Y-123.19
X169.164Y-109.601
T2
X104.757Y-112.651
X157.861Y-101.727
T3
X139.7Y-91.567
X139.7Y-95.067
X148.59Y-91.625
X148.59Y-95.125
X157.48Y-91.567
X157.48Y-95.067
X166.37Y-91.625
X166.37Y-95.125
T4
X93.253Y-103.632
X98.253Y-103.632
X103.505Y-82.677
X106.045Y-82.677
X107.315Y-91.475
X107.315Y-96.475
X118.745Y-91.475
X118.745Y-96.475
X119.399Y-123.639
X120.02Y-82.677
X122.56Y-82.677
X124.399Y-123.639
X126.537Y-103.632
X131.537Y-103.632
X141.605Y-82.677
X143.51Y-128.27
X144.145Y-82.677
X146.05Y-128.27
X146.685Y-82.677
X148.59Y-128.27
X151.13Y-128.27
X153.67Y-128.27
X156.21Y-128.27
X158.75Y-128.27
X159.385Y-82.677
X161.29Y-128.27
X161.925Y-82.677
X163.83Y-128.27
X164.465Y-82.677
X166.37Y-128.27
T5
X91.597Y-131.572
X95.097Y-131.572
X98.597Y-131.572
M30
